<svg id="Group_66" data-name="Group 66" xmlns="http://www.w3.org/2000/svg" xmlns:xlink="http://www.w3.org/1999/xlink" width="910.579" height="539.075" viewBox="0 0 910.579 539.075" position="absolute">
  <defs>
    <clipPath id="clip-path">
      <rect id="Rectangle_42" data-name="Rectangle 42" width="910.579" height="539.075" fill="none"/>
    </clipPath>
  </defs>
  <g id="Group_65" data-name="Group 65" clip-path="url(#clip-path)">
    <path id="Path_170" data-name="Path 170" d="M896.514,322.94l14.932-6.794c-1.614-.261-3.378-.553-5.142-.839.749-1.946,1.485-3.858,2.286-5.939l-13.277,1.068-1.87-1.606,11.328-7.963c-13.073.978-28.865.416-41.935,3.71-9.724,2.445-18.246,7.372-29.409,9.515-4.064.779-8.072,1.664-12.066,2.583a.494.494,0,0,0,.027-.183c-.2-.794-.645-2.02-1.044-2.093a10.663,10.663,0,0,0-4.786-.149c-4.464,1.329-8.836,3.112-13.269,4.534-2.11.678-2.566.835-3.953,3.446-.847.2-1.694.417-2.544.617l-1.9-1.793,10.819-5.671-12.4-7.4c-4.713,1.8-11.275,4.459-18.077,6.886-7.2,2.568-14.5,5.069-22.021,7.294a47.2,47.2,0,0,1-8.381,1.155q4.67-1.434,9.339-2.864c2.876-.872,5.8-1.593,8.664-2.5.477-.149,1.16-1.113,1.038-1.39-.341-.758-1.051-1.906-1.627-1.91a22.031,22.031,0,0,0-6.87.658c-3.511,1.155-6.976,2.441-10.444,3.731.085-.164.171-.328.268-.492,1.455-2.464,5.659-5.367,4.594-7.212-3.715-6.384-1.971-8.792,10.491-10.447,16.448-2.178,32.9-4.377,49.394-6.381,14.808-1.8,29.682-3.341,44.529-4.994l.718,1.737c-6.184,1.146-12.4,2.3-18.536,3.44-5.908,1.176-11.732,2.508-17.591,3.77l.273.442q10.473-1,20.94-2l1.275,1.951c-3.584,1.573-7.169,3.144-11.125,4.882,8.453-.936,16.651-1.427,24.413-2.838,5.5-1,20.091,1.325,11.165-7.109-.178-.17,1.317-.852,1.817-1.357,1.735-1.765,3.373-3.561,5.352-5.667,8-.3,17.375-.662,26.751-1.019.319.412.637.824.954,1.232l-12.137,5.307.387,1.088c5.834-.5,11.673-.993,20.845-1.774-2.789-5.961-5.149-10.751-7.18-15.594-.333-.8,1.314-1.891,1.135-2.758-.6-3-.545-6.262-2.661-8.885-5.291-6.567-14.143-12.447-16.831-19.342-2.52-6.48-6.784-10.669-17.453-13.047-7.122,3.319-14.305,6.664-23.237,10.822,1.962-4.979,3.451-8.766,5.215-13.24a48.555,48.555,0,0,1-5.922,1,24.68,24.68,0,0,1-4.155-.43c.7-3.684,1.317-6.916,1.933-10.149l-2.709-.084c-2.266,2.469-4.533,4.935-8.038,8.753-2.652-4.055-3.961-6.055-5.532-8.457,14.305-.717,11.054-5.734,9.5-11.237-4.753.567-8.877,1.053-14.41,1.711l-6.305-8.632c4.773-1.139,10.185-1.552,12.331-3.22,1.64-1.28.5-5-1.794-6.124-4.164-2.046-10.106-2.961-15.311-4.35q2.018-1.49,4.033-2.976c-3.7.835-7.4,1.672-11.307,2.559-2.318-2.657-3.352-6.627-6.847-7.355a112.354,112.354,0,0,0-19.813-2.231,8.367,8.367,0,0,1,4.046-9.761,21.984,21.984,0,0,0,3.489-3.153l-.705-1.057-3.333,2.892-1.046-.328c.408-1.6.816-3.205,1.2-4.722-.725-.87-1.618-1.933-2.28-2.723-1.414.337-2.633.628-4.448,1.064,2.35-2.905,4.123-5.091,5.941-7.34-.543-.494-1.139-1.032-1.382-1.254-1.45.943-2.662,1.729-3.872,2.518,1.378-3.634,3.37-5.852,6.567-6.012a12.587,12.587,0,0,0,3.794-.9c2.82-1.144,5.854-3.712,8.362-3.507,5.118.419,7.1-4.1,10.408-7.031-2.673-3.466-5.808-2.659-9.187-.153.1-1.3.176-2.208.208-2.6-1.728-.79-3.139-1.439-4.123-1.893-2.673.421-5.155,1.137-7.45.941-.622-.048-.684-2.853-1.149-5.114-3.315-3.054-7.221,2.324-11,3.032-2.6-3.144-4.848-5.967-9.994-3.541-3.581,1.782-7.539,1.96-11.2,2.816-.057-1.748-.084-2.613-.116-3.563-6.9,3.928-6.892,3.926-7.442-.039,1.294-.753,2.6-1.515,3.9-2.274-6.646,1.051-12.21,5.6-17.911,10.16a18.866,18.866,0,0,1-1.817,1.226,21.1,21.1,0,0,0-5.665-2.916c-1.9-.458-3.791-.852-5.685-1.224.21-.427.425-.861.628-1.273a4.837,4.837,0,0,1-1.189,1.165c-.459-.088-.915-.181-1.373-.265.277-.321.553-.652.833-.954-.617.239-1.25.486-1.921.745-2.817-.511-5.652-.975-8.533-1.463-2.022-.354-2.889-.509-3.977.168l1.909-3.8.39.755.964-.414-.712-.682-.527.11,1.082-2.151c1.061-.524,2.186-1.081,3.421-1.713-1.527,2.395-2.255,3.541-3.54,5.563,3.646-1.129,6.579-2.033,9.507-2.931l.011,1c-1.279.686-2.557,1.373-4.056,2.18,2.215.717,2.213.721,8.953-3.543-1.515,2.221-2.649,3.887-4.136,6.068,1.313-.151,2.234-.252,3.149-.356.008-.017.016-.032.022-.048a.143.143,0,0,1-.018.045l.029,0c2.09,0,4.2.116,6.914.211-.589-.889-.856-1.23-1.069-1.614-.527-.98-1.048-1.947-1.57-2.92,1.261-.462,2.633-1.368,3.752-1.278,1.478.121,2.758,1.025,4.394,1.707.7-1.791,1.274-3.271,2.124-5.453-2.014.142-3.5.242-5.337.369.906-1.221,1.557-2.1,2.982-4.014-2.718.816-4.46,1.347-6.892,2.08,2.045-1.679,3.484-2.857,4.079-3.343-4.054.408-8.575.792-13.054,1.379l.8-2.067-1-1.787c.4-.732.933-1.694,1.575-2.857-2.014.253-4.034,1.163-5.169.516-.1-.054-.2-.08-.3-.125.142-.227.277-.46.422-.669-.6-.048-1.16-.427-1.8-.1-.418.222-.836.444-1.257.662a10.668,10.668,0,0,0-2.029,1.064c-5.258,2.758-10.515,5.546-15.775,8.481-1.473.822-3.067,1.942-4.632,3.026-1.949.764-3.9,1.489-5.846,2.294l-.252-1.148c4.732-3.071,9.613-5.7,14.466-8.429a140.81,140.81,0,0,0,14.343-8.841l-.322-1.131c-4.357,2.54-8.738,5.005-13.073,7.6l-13,7.788-.39-1.357,4.325-3.436a85.051,85.051,0,0,0-10.188,4.445q-1.4.662-2.815,1.222c-.7-2.041-1.519-4.21-2.453-6.927-1.823.2-4.691,1.8-8.947,5.934a26.394,26.394,0,0,1-3.119,2.594c-.592-.416-1.192-.755-1.787-1.14.3-.155.594-.309.906-.488a34.842,34.842,0,0,1,3.682-1.468,5.189,5.189,0,0,0,1-.74c-.362-.078-.757-.332-1.079-.214-1.731.663-3.479,1.329-5.6,2.223-.126-.08-.253-.168-.38-.244.827-.708,1.531-1.254,2.694-2.234-1.519.527-2.82.971-3.967,1.433-1.7-.977-3.416-1.823-5.137-2.6q1.069-.716,2.139-1.435c-.149-.945-.633-1.372-1.4-1.36a3.6,3.6,0,0,0,1.546-.635c1.611-1.53,3.248-1.621,4.886-2.134a16.574,16.574,0,0,0,2.948-1.168c1.458-.8,2.794-1.854,4.811-3.06-1.614.408-2.658.87-3.7,1.113-.679.175-1.91.38-1.929.235-.262-1.916-1.917-.686-3.545.11a7.046,7.046,0,0,1-2.449.682c-.348.019-.9.041-1.01-.2,1.911-.962,3.827-1.918,5.74-2.967a15.773,15.773,0,0,0,2.593-2.512c-.617-.106-1.18-.539-1.863-.246-.644.278-1.289.568-1.934.848l-.118-.078-.292.257c-.287.123-.572.252-.86.376-1.4-.259-3.03.363-4.674.909l-3.843,1.379-.023.017-.01-.007c-.139.065-.281.127-.42.19-.906.339-1.793.814-2.691,1.213.013-.1-.029-.229.05-.3,1.045-.973,2.075-1.426,3.061-1.105l.014-.006.019,0c1.229-.676,2.485-1.332,3.681-2.055a5.5,5.5,0,0,0,1.02-1.062,3.123,3.123,0,0,0-1.054-.013c-1.591.466-3.207,1.081-4.787,1.485a29.227,29.227,0,0,1-3.124.621c1.118-.693,2.221-1.465,3.359-2.089.539-.289,1.115-.518,1.889-.87-.371-.214-.527-.447-.841-.466a8.3,8.3,0,0,1-1.015-.1c.437-.231.857-.457,1.248-.662,2.533-1.593,4.025-2.4,5.419-3.449a25.43,25.43,0,0,0,2.629-2.659c-.891-.006-1.827-.455-2.663.047-2.171,1.314-4.338,2.672-6.5,4.036l-.012,0c-.09-.786-.772-.848-1.681-.485q2.935-1.837,5.866-3.686c.052.032.106.05.16.08.52.306,1.527-.363,2.269-.717a9.824,9.824,0,0,0,2.4-1.485c1.088-.993,2.053-2.2,3.089-3.287a2.255,2.255,0,0,1,.679-.335c.674.758,1.36,1.537,1.727,1.947q1.267-4.492,2.523-8.943c.738-.207,1.481-.4,2.22-.615a12.457,12.457,0,0,0-2.087.142c.011-.035.022-.075.031-.11a7.719,7.719,0,0,0,.4-2.473c-.263-3.651-.559-7.281-.861-10.905l.108.086a9.142,9.142,0,0,0,.885-.583,7.98,7.98,0,0,0-1.025-.79.708.708,0,0,0-.072.041c-.1-1.236-.2-2.471-.3-3.7,4.188-1.366,8.4-2.322,12.352-4.18,2.3-1.085,6.225-1.366,5.455-6.515-1.205-.4-2.275-.76-4.09-1.372,2.495-2.009,4.844-3.956,7.118-5.734s4.485-3.481,6.691-5.188l-.6-1.3a27.288,27.288,0,0,0-7.506,1.232c-2.476.786-4.934,1.783-7.4,2.706-4.927,1.843-9.872,3.358-15.072,2.341,1.547-.975,3.032-1.906,4.517-2.838l-.214-1.373c-3.4.332-6.905.311-10.161,1.545-2.9,1.09-4.987,1.29-6.244-1.524-1.449-.274-3.044,4.618-3.592-.227a25.882,25.882,0,0,1,3.853-2.018q3.6-1.152,7.2-2.3c2.4-.742,4.811-1.521,7.212-2.173q5.877-1.711,11.749-3.42c3.919-1.135,7.841-2.382,11.748-3.4,3.878-1.068,7.72-2.352,11.554-3.68a50.453,50.453,0,0,0,4.957-2.315L694.453,23c-.474-.035-.951-.065-1.9-.129,1.858-2.041,5.232-2.2,4.036-5.481-3.016.244-5.964-.319-8.389.82a50.684,50.684,0,0,1-14.018,3.863,130.711,130.711,0,0,0-14.155,2.98q-4.09,1.23-8.189,2.456l-8.2,2.7-4.028,1.29c.715-1.042,1.425-2.055,2.074-3.058a32.367,32.367,0,0,0,2-3.481,11.459,11.459,0,0,0,1.111-7.6c-.314-1.472,1.143-4.683,2.235-6.9,1.307-2.708,2.041-5.276,1.808-7.137a3.78,3.78,0,0,0-.974-2.272A3.928,3.928,0,0,0,645.6.005c-.821-.116-2.639,2.108-3.847,3.518-1.269,1.482-2.676,4.62-3.443,4.687-3.1.41-4.818.811-5.91,2.2s-1.426,3.613-1.946,7.905c-.764.74-1.5,1.455-2.335,2.266-.42.408-.864.835-1.346,1.308-.45.414-.935.865-1.475,1.362.545.214,1.028.4,1.478.578.464.149.92.242,1.351.358.868.22,1.7.427,2.709.682-3.718,3.336-6.135,5.173-8.758,7.389a12.325,12.325,0,0,1,3.487-1.485,15.724,15.724,0,0,0,3.665-1.331,10.442,10.442,0,0,0,3.487-2.963,13.439,13.439,0,0,0,1.464-2.5A23.081,23.081,0,0,0,635.5,20.39l1.212.317c-.341,3.071-.684,6.14-1.132,10.156.911.263,2.074.594,3.183.911l-3.322,1.062c-2.735.9-5.467,1.625-8.2,2.635-5.157,1.8-10.437,2.773-15.643,4.253-2.545.723-2.8-.553-2.032-2.775l-2.781.865-2.776,1-5.545,2-11.064,4-.352-1.1c2.239-1.677,4.478-3.358,7.249-5.438-3.729.65-7.057,2.279-9.517,1.411-3.836-1.2-7.2.3-10.788,2.145-3.328,1.724-6.631,3.557-9.939,5.326-.828.451-1.657.857-2.485,1.331l-2.482,1.424c-1.656.935-3.319,1.834-4.993,2.663-4.741,2.374-9.741,3.323-14.607,5.1-5.81,2.5-11.6,5.162-17.645,7.864,0-.212,0-.971,0-1.906l-1.784,1.1c.051,1.478.177,3.321.1,3.353-.782.35-1.573.719-2.363,1.029a10.1,10.1,0,0,1-2.382.7c-1.591.233-3.086-.544-4.679-.212a26.74,26.74,0,0,0-3.566,1.058c-1.194.451-2.383,1.057-3.571,1.569L497.341,75l-1.562.7-1.534.757-3.065,1.517-6.135,3.041-6.024,3.155-.041,2.2c2.86-.829,5.654-1.472,8.559-2.533,2.928-1.09,5.853-2.186,8.774-3.343,2.971-1.055,5.946-2.145,8.9-3.354,2.068-.9,4.148-1.75,6.223-2.711,2.076-.945,4.152-1.929,6.231-2.771.671-.276,1.373.438,2.062.7l-.117.846c-.737.617-1.669,1.327-2.58,1.968-1.143.57-2.291,1.15-3.438,1.72-1.931-3.44-4.42.294-5.618,1.677a4.586,4.586,0,0,0-.651,1.017c-2.466,1.064-4.325,2.41-5.122,5.5.686-.38,1.249-.688,1.807-1,.75-.444,1.505-.816,2.258-1.237-.252,1.023-.508,2.119-.855,3.218a12.325,12.325,0,0,1,5.762-1.373c-.579.324-1.153.676-1.733.984-1.585.824-3.226,1.373-4.844,2.076-2.151.967-4.306,1.992-6.463,3.023q-3.192,1.672-6.382,3.345c-4.276,2.154-8.453,4.366-12.663,6.03-2.548,1.006-5.043,1.672-7.563,2.534a28.632,28.632,0,0,0-7.537,3.7c-2.117,1.511-4.193,3.328-6.339,4.549a87.322,87.322,0,0,1-8.425,3.8l-.186,1.6c.748.019,1.5.143,2.249.218l.485,1.705c-.979,1.528-1.87,2.922-2.739,4.279a39.065,39.065,0,0,0-6.1,3.928c-1.436,1.135-4.266,1.023-6.475,1.463l.016-.022-.089.032.042.022a8.684,8.684,0,0,0-7.385,2.754,9.88,9.88,0,0,1-5.644,2.68c-1.877.326-3.737.417-5.258,1.288-3.439,1.955-6.635,4.776-10.56,6.3-.451.175-1.235.086-1.371-.164a1.4,1.4,0,0,1,.458-1.308c2.433-1.9,4.944-3.721,7.433-5.57-3.835,1.2-7.528,2.674-11.164,4.223.072-.084.151-.164.222-.25,1.8-2.177,3.1-5.542,5.1-6.761l29.962-17.6c3.06-1.832,5.942-4.273,8.908-6.424l-.312-1.288c-17.519,8.848-35.193,17.279-52.782,25.562-.021-3.334-1.564-5.367-5.621-3.6-1.642.717-3.562,1.271-4.808,2.613-4.035,4.335-9.462,2.259-13.6,7.911-2.163,2.931-2.664,1.653-2.2,5.825.336,2.989-1.237,6.748-2.108,10.151-.114.449-.251.9-.391,1.357-.09.043-.18.084-.27.125a12.287,12.287,0,0,0-3.1-.583l-.605-.05.017-.011c-.129,0-.258-.013-.388-.017-.419-.039-.832-.075-1.255-.106-.46-6.985,4.319-14.018,5.079-21.073.066-.63,1.2-1.277,1.613-2.042,2.162-4.027,4.227-8.125,6.726-12.985-7.942.649-14.092,3.831-20.077,8.731a20.317,20.317,0,0,1-6.887,3.229c-2.681.842-5.407,1.09-8.113,1.685-1.486.328-3.508,1.713-4.377,1.129-6.131-4.117-12.486-.358-19.068,3.058a26.02,26.02,0,0,1-3.886,1.578c-1.6-.045-3.222-.212-4.781-.384-3.635-.406-7.229-1.385-10.857-2.029-1.988-.348-4.821.084-5.882-.87-7.489-6.767-16.308-5.779-25.309-5.276-3.865.225-7.878-.451-13.02-.8-1.316.936-3.756,4.376-6.309,4.314-7.555-.181-9.663,3.394-11,8.68,2.316-.4,4.465-.764,6.523-1.118-1.925,5.527-3.707,10.641-5.843,16.764,5.233.3,9.631.55,14.813.839-2.18,4.288-4.576,9-7.408,14.567,5.874-2.123,9.664-3.436,13.455-4.737-9.588,9.636-9.978,10.166-9.216,12.486,5.384-2.2,10.675-4.355,16.568-6.755,3.227,10.372-10.551,5.956-11.918,11.062,1.446.68,3.029,1.429,4.617,2.178-13.258.488-26.34.949-39.531,1.6-10,.555-20.036,1.362-30.22,2.626-4.832-.993-9.659-1.906-14.472-2.691-.986-.177-1.748,1.217-2.613,1.916,1.048.591,2.123,1.616,3.135,1.826,2.173.471,4.353.915,6.529,1.349,1.624.732,3.019,1.366,4.366,1.975-1.4.242-2.811.481-4.218.725,2.145.071,4.3.177,6.451.283.741.339,1.505.682,2.331,1.057-4.105,2.326-6.986,3.956-10.128,5.734l3.436,1.2-1.629,5.773,8.92-.123,1.227,1.737c-.281.259-.557.516-.836.777-1.941-.25-3.878-.492-5.8-.673-.57-.052-1.449.608-1.33.934.044.119.111.261.168.391-7.175-.16-14.346-.371-21.524-.518l-.359.788q4.443.964,8.888,1.925l-.109,1.18c-.36.035-.723.073-1.084.1a1.9,1.9,0,0,0-1.113-.307,5.11,5.11,0,0,0-1.57.563l-11.789,1.124c4.073.512,7.673.963,11.009,1.381.6.3,1.251.624,1.976.986-4.955.149-9.912.274-14.87.419-5.1.147-10.276.693-15.386,1.34a5.086,5.086,0,0,0-.638.155c-8.9-.1-17.788-.218-26.634.263-3.868.212-7.6,3.71-10.922,5.924-.4.266,2.208,1.929,3.922,3.364,6-8.829,18,.054,25.178-4.679-1.779-.438-3.584-.885-5.386-1.332.495-.315.993-.639,1.49-.962q4.229-.117,8.467-.235c1.069,1.113,1.97,2.549,3.5,2.771,7.4,1.077,15.268,1.316,22.559,2.54-1.563,1.873-3.106,3.72-4.723,5.656,6.677-1.157,13.522-2.346,19.52-3.393,2.8.36,5.606.7,8.431.993.374,1.286.736,2.527,1.082,3.738-7.408,3.893-8.375,3.623-15.4,1.61l8.517-2.361-.968-1.422c-5.76,1-11.459,2.173-17.3,2.944-6.878.9-14.137,2.35-20.752,1.916-7.778-.511-14.817-3.654-22.579-4.085-8.593-.475-18.994-.594-26.167,1.692-10.291,3.28-18.368,8.878-27.392,13.492Q47.706,256.92,36.6,262.6l.733,2.285a187.194,187.194,0,0,1,33.7-1.34,1.161,1.161,0,0,0,.5.771,36.646,36.646,0,0,0,6.276,2.408c.748.2,1.907-.608,2.878-.954-.213-.386-.343-.87-.571-1.241,1.826.287,3.615.637,5.379,1.034,0,.011,0,.021.01.032.263.406,1.18.539,1.813.788a3.47,3.47,0,0,1,.175-.352,62.614,62.614,0,0,1,14.71,5.622c-.471,1.634-1.79,3.833-1.567,5.941.4,3.83,1.722,7.6,3.057,13.019,3.413,1.032,9.236,1.455,18.388.354,11.412-1.372,25.849.414,36.064,3.61,13.132,4.107,22.707,2.027,35.571-2.192-4.07-.714-6.3-1.422-8.616-1.463-4.046-.071-8.108-.048-12.166-.043a13.279,13.279,0,0,0,5.574-3.9c.813-1,3.07-1.414,4.658-2.1a42.847,42.847,0,0,0-10.581.475c-1.894.369-3.532,1.918-5.28,2.922.741.147,1.5.242,2.246.369-.767-.116-1.547-.2-2.3-.337l.058-.032-.018-.006c-1.557.827-3.129,1.677-4.7,2.518-1.52-.032-3.041-.056-4.555-.117-2.449-.106-4.533-1.929-6.788-2.967,1.059-.322,2.1-.662,3.155-.993l.6.345.175-.574c1-.307,2-.6,3.035-.857l.461.048a23.614,23.614,0,0,0,3.415.035,14.662,14.662,0,0,0,3.611-.639,12.634,12.634,0,0,0,1.875-.779,15.8,15.8,0,0,0,1.965-1.312,21.267,21.267,0,0,1-2.2.307c-.4.013-.776,0-1.159,0l-.057-.3-3.478.263c-.367-.006-.741-.015-1.095,0a20,20,0,0,0-2.169.242l-12.784.956-.036-1.733a41.207,41.207,0,0,0,6.8-1.258c1.425.378,3.383-1.318,4.971-1.31,1.543.007,3.1-.436,7.394-1.111-3.894-1.331-5.848-2.65-7.363-2.361a17.276,17.276,0,0,0-2.892.893c-1.116-1.56-3.649-3.608-7.588-6.375l13.159-.367.127-1c-4.23-.539-8.46-1.083-12.726-1.627,1.339-.019,2.677-.037,4.017-.048,9.729-.093,19.446-1.23,29.183-.438a4.593,4.593,0,0,0,2.363-.28,10.82,10.82,0,0,0,2.05-1.955c-.922-.485-1.946-1.485-2.752-1.381-8.036,1.09-15.547-.382-23.445-1.394a85.468,85.468,0,0,0-8.96-.628l1.115-1.552c-11.023.311-19.669.548-28.315.79l.094-.982c12.412-3.358,24.822-6.716,39.483-10.686.67.125,4.234.788,7.8,1.45l-.473,1.157-9.964.28-.872,1.623c6.408,1.439,12.818,2.883,21.023,4.728.3.371,1.9,2.354,3.969,4.912A16.661,16.661,0,0,1,187,262.1c3.04,4.828,6.341,9.586,7.538,14.636a26.048,26.048,0,0,0,2.11,5.989c-1.364.4-2.745.876-4.007,1.381a27.833,27.833,0,0,0-4.077,2.048c1.525-.2,3.044-.412,4.547-.663s3.067-.617,4.559-1.029a18.453,18.453,0,0,0,8.291,6.548c4.81-2.784,9.664-5.6,15.7-9.088-.725,2.5-1.36,4.691-1.981,6.828-2.708.488-5.415.971-8.121,1.478l-10.428,1.891c-3.5.581-7.072,1.232-10.462,1.735-2.68.4-5.349,1.748-7.957,2.5l6.173-.865,6.241-.77c4.245-.548,8.5-1.023,12.64-1.72,3.8-.624,7.576-1.325,11.328-2.225-.377,1.3-.757,2.611-1.156,3.99a21.518,21.518,0,0,1,3.965-.557,11.967,11.967,0,0,1,2.76.745c-.537,3.63-1.01,6.813-1.482,9.994l1.41.227c-1.216.375-2.437.74-3.634,1.165a2.94,2.94,0,0,0-1.525,2.326,3.692,3.692,0,0,0,.106.371c-1.433.4-2.875.8-4.349,1.157.171-.321.3-.682.483-1-.083-.311-.15-.883-.254-.891q-5.677-.179-11.366-.362c.055.559-.141,1.267.2,1.653a7.371,7.371,0,0,0,3.653,2.1c-2.468.421-5,.781-7.611,1.034-2.244.218-4.434.779-8.516,1.554-.774-.052-1.547-.11-2.32-.168l-.011-.021-.031.061c.783.048,1.567.089,2.353.132-.243.045-.464.089-.72.138,8.34,3.688,15.632,6.91,23.228,10.272l-.9.211a13.849,13.849,0,0,0-3.251,1.823c1.024.25,2.318.973,3.026.669a13.227,13.227,0,0,1,4.771-1.09c.449.2.894.4,1.348.6l5.8.222c.351.058.7.116,1.052.164a10.689,10.689,0,0,0,2.139-.015l-.163.824q-7.549.693-15.1,1.39c-.49-.4-.981-.8-1.469-1.2-.873.639-1.427,1.04-1.978,1.442a.587.587,0,0,0,.078.063q-4.537.419-9.076.837l-.447,1.618,19.607,3.112c-.105.073-.211.144-.319.209.782.416,1.536,1.271,2.353,1.168,2.579-.328,4.285-.019,5.3.826l-.52,1.826c-.506,0-1.01,0-1.515,0-.089-.11-.178-.218-.308-.229a2.667,2.667,0,0,0-.8.212l.014.017q-4.485-.017-8.961-.028c-3.6-.063-9.225-1.068-10.392-.2-.1.075-.181.158-.276.233a.928.928,0,0,0-.395-.257q-9.908-2.53-19.854-5.065c-1.562-.384-3.771-1.232-4.694-.36-6.257,5.878-16.235-.863-21.36,9.066-.816,1.591-3.759,1.537-5.727,2.16,5.239,2.916,9.623,2.536,13.6-3.256,2.575-3.787,9.107-1.67,11.573,2.061,1.818,2.747,4.269,5.975,7.741,2.471l-1.628-2.018c-.731-.255-1.462-.509-2.2-.766l2.209.753,1.649,2a.342.342,0,0,1-.034.03l0,.007a19.234,19.234,0,0,0,2.353,2.039c-.9.121-1.811.242-2.709.384-.174.026-.024.816.2,1.862-.441-.106-.88-.211-1.332-.274-.2-.309-.465-.563-.669-.576-4.284-.222-8.677-.76-12.843-.2-2.022.274-3.726,2.259-6.386,4.269q-17.111.475-34.34.956l.074,1.057.958.032a6.344,6.344,0,0,1-.534.423,5.447,5.447,0,0,0,1.356,1.025,13.441,13.441,0,0,0,2.449.365l-8.614,2.493c-1.906.089-3.807.216-5.7.421-.5-.231-.952-.311-1.222.155-.646.08-1.293.147-1.936.246.6.056,1.193.088,1.787.136a5.106,5.106,0,0,0-.114,1.256c0,.593,2.209,1.733,3.409,1.839,1.6.145,3.212-.542,4.832-.755q3.2-.4,6.393-.8l3.788-.563c.9.034,1.8.075,2.693.114l.3,1.562c-5.614,1.7-11.239,3.1-16.892,4.523-2.394.6-4.827,1.045-7.215,1.681-.4.11-.991,1.006-.9,1.3.258.785.811,2,1.288,2.057a15.011,15.011,0,0,0,5.7-.009c5.28-1.534,10.444-3.295,15.67-5.108,3.024-1,3.163-1.06,5.8-5.85,8.265.263,19.272-.527,22.887,1.981,6.137,4.264,17.683-1.759,20.054,3.524-2.959,2.065-5.282,3.684-6.889,4.8,11.319.125,21.736.242,32.319.358l-4.116-5.235,24.156,4.705q-2.727.646-5.456,1.286-5.884,1.451-11.769,2.9c-3.924.941-7.879,1.867-11.766,2.49-1.963.328-3.886.645-5.893.863s-4.018.391-6.036.505a13.466,13.466,0,0,0-4.707,1.716c-2.923-.173-5.8-.341-8.795-.516,2.913-1.29,5.316-2.357,7.716-3.418l-.576-1.226c-6.293.173-12.591.348-18.16.505,1.479-1.828,3.9-3.863,4.511-6.014.3-1.055-2.9-3.4-4.305-3.308-7.021.425-13.969,1.463-20.771,2.266,1.871.511,3.971,1.083,5.05,1.379-4.118,1.9-8,3.68-12.379,5.7,3.359.594,5.593.991,9.792,1.737l-8.7,2.264c3.3,3.39,10.844,1.94,14.934,5.643,3.3,2.98,17.261,5.695,22.13,2.011,6.713-5.08,12.471-4.782,20.553-3.947,1.139.116,2.706-.816,6.5-2.056-2.619-.155-5.057-.293-7.382-.43,1.607-.281,3.2-.57,4.756-.891,3.355-.652,6.709-1.318,10.123-2.069,6.795-1.448,13.584-2.821,20.374-3.878l5.048-.809q2.508-.556,5.009-1.105c3.335-.76,6.654-1.564,9.959-2.449s6.6-1.847,9.874-2.915c1.636-.546,3.276-1.077,4.9-1.711,1.623-.662,3.24-1.347,4.855-2.078a30.038,30.038,0,0,1,5.833-1.668c-.527.669-1.06,1.319-1.587,2a20.638,20.638,0,0,0-1.325,2c-1.407.313-2.811.628-4.217.971-1.477.343-2.953,2.178-4.592,3.36l9.868-2.723a19.281,19.281,0,0,1-.157,2.629c-.033.4-.1.822-.168,1.25h-.2a12.439,12.439,0,0,0-1.577,2.663,1.549,1.549,0,0,0,.02.481c-1.018.015-2.019.067-3,.179a48.72,48.72,0,0,0-6.105,1.189,55.943,55.943,0,0,0-11.291,4.608c-2.09,1.079-3.388,3.256-5.054,4.929.929.143,1.86.291,2.792.436l-.042.05.125-.03-.08-.021c3.767-4.092,8.72-5.771,14.1-7.283l.114.121.142-.194a106.781,106.781,0,0,0,10.207-3.14,18.416,18.416,0,0,0,3.92-.464c.611-.147,1.4-1.442,2.113-2.21-.32-.406-.521-1.12-.986-1.163-1.283-.117-2.6-.13-3.85-.138a7.273,7.273,0,0,0,.9-1.42c.569-1.277,1.141-2.421,1.719-3.477,3.094-.852,6.137-1.69,9.169-2.527,0,.067.006.138,0,.2.06-.084.124-.17.182-.253.067-.019.136-.037.2-.054-.129.11-.258.218-.384.328v-.02c-.012.017-.025.039-.041.06l.042-.021-2.59,4.4c-.152.015-.3.034-.442.034-.049.332-.164.749-.224,1.1l-.3.518a.8.8,0,0,0,1.079.175c.261-.045.543-.114.783-.13.03-.207.091-.451.148-.688.694-.827,1.412-2.028,2.1-2.957,1.258-1.793,2.531-3.6,4.767-6.781-1.455,1.172-2.541,2.031-3.478,2.786l-.865.173a6.036,6.036,0,0,0,.559-.932,20.151,20.151,0,0,0,.87-2.939l2.294-.505c3.222-.706,6.425-1.541,9.628-2.393.154.24.307.479.452.74-1.483.924-2.97,1.837-4.452,2.784-.733.464-1.324,1.757-1.984,2.667.575.373,1.1,1.243,1.734,1.027,2.138-.738,4.3-1.405,6.455-2.262.231.7.455,1.47.681,2.268q-.6.548-1.158,1.131c-3.839,3.986-8.676,7.048-13.713,9.772-.716,1.038-1.211,2.557-2.2,3.01-6.61,3.015-13.335,5.812-20.038,8.66-6.58,2.594-6.6,2.525-11.794,1.357l.052-.045-.064-.017c0,.026.011.035.012.06-4.7,4.225-9.874,6.3-16.231,5.52a21.324,21.324,0,0,0-2.776-.153,14.165,14.165,0,0,0-2.817.214,16.186,16.186,0,0,0-5.956,2.406,46.916,46.916,0,0,1-11.6,5.231,61.707,61.707,0,0,1-12.675,2.456,31.983,31.983,0,0,0-3.773.624q-2.859.643-5.712,1.278c.2.962,2.3,2.123-1.541,2.559A31.651,31.651,0,0,0,187,410.271a1.546,1.546,0,0,0-.941,1.144c0,.267.745.6,1.249.626.973.058,2.09-.265,2.948-.158a27.028,27.028,0,0,1,3.563.93c-1.14.455-2.243,1-3.422,1.344a38.525,38.525,0,0,1-5.4.714,6.693,6.693,0,0,0-4.617,2.192c-.547.678.617.98,2.794.9a35.315,35.315,0,0,0,3.931-.4c.746-.119,1.551-.244,2.354-.421s1.626-.391,2.472-.621c3.479-.95,7.119-1.636,10.467-2.288,1.014-.188,2.1.345,3.922.7-2.5,1.167-4.094,1.964-5.749,2.67a6.86,6.86,0,0,0-1.77,1,1.107,1.107,0,0,0-.521.887c.044.565.8,1.064,1.871,1.5a48.579,48.579,0,0,0,8.53,2.775,29.039,29.039,0,0,0,10.31.052l-6.72,2.115a88.8,88.8,0,0,0,15.409-1.987c.283-.052.534-.587.8-.9-3.777-.58-3.114-1.293.561-1.826q4.073-.54,8.137-1.068c2.71-.365,5.407-.919,8.111-1.474.713-.155,1.422-.339,2.135-.5.609.408,1.286.839,2.1,1.323-.163-.639-.329-1.183-.485-1.7,5.409-1.252,10.816-2.626,16.226-3.783q7.322-1.507,14.624-3.008a84.2,84.2,0,0,0,14.614-4.241c1.2-.5,2.726-.112,4.083-.192l-.094,1.353q-5.437,1.515-10.88,3.036l-12.463,3.414-6.23,1.729-6.272,1.582c-8.086,2.059-16.5,2.318-24.17,6.917a3.2,3.2,0,0,1-.961.2q-15.036,2.675-30.08,5.352c-2.788.447-5.556.977-8.348,1.59a9.714,9.714,0,0,0-2.3,1.163c.945.289,1.9.928,2.844.813l9.6-1.209,9.843-1.442c6.564-.978,13.131-1.992,19.693-3.118,8.693-1.912,17.364-4.668,26.055-6.589q13.876-3.139,27.733-6.271c.73-.55,1.518-1.45,2.171-1.552.2-.03.393-.075.59-.1l-1.449.977c.628,1.854,1.262,3.71,1.922,5.544-.494.8-.992,1.6-1.483,2.415a15.291,15.291,0,0,0-.909,2.413c.435-.136.915.022,1.3-.453,3.637-4.651,7.291-10.167,11.077-11.573l.031-.069.03.011,1.209-1.45c.132-.024.261-.054.392-.078q1.225-.229,2.446-.444c-.708.814-1.419,1.614-2.134,2.359-.575.6-1.27-.2-1.913-.388l-.046.052-.015.006c-.914,2.246-1.8,4.713.049,4.085,1.082-.391,2.448-1.793,3.653-2.542.949-.572,2.331-3.131,2.742-.73.116.667,1.859-.391,2.9-1.1a41.8,41.8,0,0,0,3.426-3.036c.466-.052.935-.112,1.4-.162,2.368-.233,4.678-.555,6.99-1a57.478,57.478,0,0,0,6.954-1.886c.621-.207,1.255-.44,1.888-.675q-2.347,2.77-4.674,5.619c-1.144.365-2.3.738-3.469,1.126-4.455,1.4-9.152,3.039-14.4,5.017,3.156.188,4.431.6,5.771.294q4.253-1.009,8.525-2.02c-.564.7-1.121,1.444-1.685,2.152-1.067.608-2.212,1.258-3.459,1.955a9.23,9.23,0,0,0,1.6.417c-2.2,2.79-4.4,5.559-6.581,8.41-1.727,2.316-3.5,4.467-5.25,6.724q-2.64,3.352-5.27,6.7c-1.543,2.033-3.766,3.047-4.032,6.636-.055.786,2.382-.308,3.661-.518l.012-.021.016.009.569-.2c-.094.1-.2.259-.279.276a.519.519,0,0,1-.29-.08l-.018.011h-.009l-2.928,4.137c-.978,1.373-1.923,2.859-2.876,4.318a26.718,26.718,0,0,0-1.384,2.89c.585-.3,1.2-.293,1.741-.941.832-.988,1.662-2.029,2.485-3.09s1.663-2.1,2.495-3.146c5.616-7.255,11.485-13.462,17.117-20.493,1.131-1.394,2.3-2.741,3.469-4.117s2.358-2.695,3.494-4.167a43.745,43.745,0,0,0,4.7-7.46,22.358,22.358,0,0,0,1.348-2.167,3.355,3.355,0,0,1-.316-.153c.059-.144.125-.265.182-.408.472-.132.942-.265,1.412-.389q2.971-.841,5.947-1.673c-.163.537-.311,1.1-.491,1.618.623-.1,1.27.14,1.859-.369.784-.7,1.575-1.472,2.417-2.315.413-.116.829-.235,1.244-.352a31.5,31.5,0,0,1-1.993,3.047,22.222,22.222,0,0,0-1.972,1.323,6.794,6.794,0,0,1,.616.406c-1.471,1.739-2.983,3.205-4.511,4.8-4.952,5.367-9.656,11.915-14.4,18.119-2.4,3.032-4.948,5.753-7.323,8.878a36.968,36.968,0,0,0-6,11.819,53.858,53.858,0,0,0-3.12,5.173l-1.462,2.78-1.421,2.888c-.945,1.919-1.911,3.794-2.941,5.533a34.323,34.323,0,0,1-3.3,4.868,11.67,11.67,0,0,0-.834,2.451c.362.032.838-.164,1.065.143.8,1.1,1.657.417,2.81-1.817.819-1.618,1.679-3.157,2.55-4.672l2.627-4.519c.806-1.405,1.922-3.38,2.584-3.571,2.221-.6,4.129-3.446,6.3-5.76,1.11-1.209,2.221-2.62,3.359-3.789a6.9,6.9,0,0,1,3.562-2.188c1.148-.158,3.211-2.287,4.25-4.169a44.4,44.4,0,0,1,3.491-5.5c1.216-1.644,2.507-3.054,3.783-4.48a100.663,100.663,0,0,0,7.6-8.777c.411-.581,1.1-.512,1.66-.725-.859,5.419,1.374,1.437,2.518.227,3.538-3.744,3.548-3.792,5.107.022l.032-.022.037.006c1.071-1.269,2.163-2.488,3.2-3.837a6.547,6.547,0,0,0,.971-1.875,5.8,5.8,0,0,0,3.385.039c.209-.08.416-.144.627-.216-2.592,4.463-5.282,6.524-8.185,5.889l-.052.06-.018-.043c-2.018,1.331-4.026,2.931-6.027,4.057-1.834,1.019-4.033.788-5.342,2.665a65.217,65.217,0,0,1-7.2,7.983,27.238,27.238,0,0,0-6.32,10.292,6.268,6.268,0,0,1-1.35,1.988c-1.041,1.124-2.078,2.329-3.117,3.522-1.032,1.211-2.045,2.469-3.08,3.6a32.645,32.645,0,0,1-3.13,3.079,13.261,13.261,0,0,1-3.194,2.184c-1.551.7-3.312,2.059-4.674,6.768,2.559-2.087,4.961-3.239,7.246-5.579,1.161-1.223,2.346-2.378,3.535-3.546s2.365-2.361,3.542-3.578c2.39-2.341,4.74-4.812,7.1-7.322a60.79,60.79,0,0,1,7.116-5.887,23.637,23.637,0,0,0,3.5-3.386,24.718,24.718,0,0,0,3.318-5c.37-.729,1.311-.824,1.982-1.359a143.851,143.851,0,0,0,16.473-15.419c.551-.591,1.114-1.23,1.686-1.884a36.487,36.487,0,0,1,5.859-.28c-.209.505-.4,1.06-.615,1.552.569-.054,1.185.237,1.694-.222.445-.386.886-.818,1.328-1.262,1.236.043,2.471.089,3.7.1a16.251,16.251,0,0,1-2.668,3.067c-3.2,2.928-6.836,5.119-9.473,9.068-4.333,6.357-8.882,10.5-13.44,15.212-1.12,1.142-2.153,2.62-4.3,5.253,2.935-1.908,4.675-3.093,6.429-4.007.338-.179.622.434.931.682-.258.466-.5.967-.779,1.4-.731,1.114-1.493,2.171-2.221,3.3a54.113,54.113,0,0,0,6.741-6.774c2.19-2.467,4.265-5.2,6.334-7.749a51.65,51.65,0,0,1,4.995-5.4c1.683-1.543,3.381-2.922,5.15-4.327-1.431,3.017-2.854,6.245-4.651,8.33-4.421,5.259-8.977,10.089-13.377,15.246-1.837,2.141-4.063,2.7-5.573,6.3-.219.507-1.265,1.195-1.348.99-1.359-3.319-3.046,1.405-4.218,2.9-3.393,4.131-6.564,8.934-9.73,13.609.544,1.554,1.435,1.28,2.673-.369,1.807-2.393,3.57-4.877,5.437-7.272a18.133,18.133,0,0,1-4.5,10.542c-1.791,2.136-3.61,4.064-5.39,6.235a12.068,12.068,0,0,0-1.079,2.626c.4-.02.836.276,1.193-.1,3.021-2.963,6-6.051,9.068-8.924.56-2.991,1.989-3.962,3.455-5.341,1.925-1.851,3.769-4.275,5.7-6.362l-.186-.867c-2.5,2.165-4.923,4.491-7.677,7.033,1.073-3.451,2.094-5.51,4.087-6.6a12.4,12.4,0,0,0,4.633-4.212,23.172,23.172,0,0,1,4.167-5.041,36.969,36.969,0,0,1,4.348-3.382c1.676-1.155,3.648-.164,4.97-1.748,1.452-1.681,2.3-5.179,4.326-6.886,2.721-2.249,5.468-4.48,8.153-7.059,1.635-1.563,3.235-3.271,4.849-4.963s3.248-3.366,4.9-4.929a20,20,0,0,1,4-2.478c-2.806,4.364-5.69,8.93-8.664,10.861a22.306,22.306,0,0,0-5.262,5.531c-1.56,2.171-3.02,4.508-4.683,6.457a99.087,99.087,0,0,0,7.838-7.62c1.936-2.026,3.359-2.238,4.105.112l-5.829,6.049c3.238.688,4-.13,5.853-6.045,2.244-.934,4.5-.766,6.641-4.586.144-.255.856,0,1.259.127a3.615,3.615,0,0,1-.358,1.25,60.1,60.1,0,0,1-6.223,8.287,24.777,24.777,0,0,1-6.613,5.443c-5.7,3.069-10.513,10.5-15.859,13.988a4.087,4.087,0,0,0-.867,2,.771.771,0,0,0,.9.665,32.042,32.042,0,0,0,3.191-1.569c-.684,1.966-1.242,3.563-1.8,5.169a13.681,13.681,0,0,0,2.568-.334c.513-.155,1.086-.814,2.684-2.061-4.673,5.527-4.68,5.458-10.155,7a9.836,9.836,0,0,1-3.4,3.748,7.605,7.605,0,0,0-2.959,4.84l.058.047.477-.058c-.088.069-.189.2-.257.19a.453.453,0,0,1-.221-.132l-.071.011.013-.058-2.615,3.408,1.971,2.641a2.172,2.172,0,0,0,2.4,1.032,5.608,5.608,0,0,0,2.867-2.4,22.376,22.376,0,0,0,1.939-3.218,35.871,35.871,0,0,1,5.584-8.265,21.652,21.652,0,0,1,6.5-4.786,62.873,62.873,0,0,1-6.374,6.847,6.57,6.57,0,0,0-2.353,4.3c-.3,1.75-.762,3.526-1.15,5.279h.03c1.647-1.332,3.3-2.663,5.464-4.418-3.124,4.338-3.122,4.361-5.464,4.418l-.037.032.007-.032c-1.812,1.75-3.63,3.382-5.372,5.386-.72.829-1.188,2.529-1.773,3.83a10.486,10.486,0,0,0,1.943-1.226c1.509-1.347,2.949-4.459,4.726-3.5-4.451,6.817-4.7,7.473-6.084,13.179-.352-.788-.557-2.05-1.1-2.229-.614-.2-1.556.421-2.311,1.01a6.512,6.512,0,0,0-.46,1.979,7.05,7.05,0,0,0,1.808.3l2.058-1.051c.751,3.386-1.563,4.5-2.578,6.593,1.209-.438,2.425-.87,4.379-1.478-1.484,2.1-2.252,3.242-3.012,4.405-2.056,3.112-2.735,5.93-1.93,8.708.173.6.9,1.109,1.278.794,1.257-1.068,2.507-2.188,3.747-3.325s2.535-2.251,3.79-3.386c1.273-1.131,2.04-.47,1.6,1.748-.526,2.732-1.314,5.432-2.389,10.009,2.966-5.158,5.616-4.387,8.1-8.058,1.454-2.184,1.68.194,1.8,2.292.15,2.59,1.4,2.706,2.207.311a7.471,7.471,0,0,1,3.682-4.6,37.456,37.456,0,0,1,4.671-2.361,12.425,12.425,0,0,0,4.714-4.206,34.094,34.094,0,0,1,4.333-4.951,33.234,33.234,0,0,0,4.461-5.369,31.85,31.85,0,0,1,4.131-5.147,22.807,22.807,0,0,1,4.586-3.576c9.21-5.153,18.329-13.7,27.944-20.117a9.479,9.479,0,0,0,2.317-2.631,80.413,80.413,0,0,1,14.2-16.174c1.9-1.713,3.853-3.356,5.764-5.268a34.718,34.718,0,0,0,5.371-6.826c.775-1.3,2.627-1.646,4-2.41l-.006.015.052-.037-.032-.017c1.728-.073,3.291-1.357,4.464-3.828,1.893-4,4.841-3.436,6.557-5.587.225-.28.444-.57.662-.872.083.021.164.043.247.065.651.177,1.309.376,1.966.574-.054.084-.107.17-.159.255.091-.075.181-.149.276-.224,1.463.432,2.935.885,4.434,1.334-.033.207-.147.917-.284,1.8.585.05,1.186.1,1.344.117.188-1.426.377-3.239.434-3.224a9.55,9.55,0,0,1,3.374,1.485c1.069.846,1.909,2.574,2.979,3.321a16.878,16.878,0,0,0,2.453,1.383l1.237.565,1.131.587c5.252,2.747,10.788,6.366,16.649,10.14l.5-1.886-2.867-2.922a37.379,37.379,0,0,0-2.859-2.684,84.32,84.32,0,0,0-11.551-8.384,13.183,13.183,0,0,0-2.146-1c-.741-.285-1.489-.546-2.235-.8-1.5-.5-3-.969-4.481-1.565-.477-.19-.848-1.3-1.264-2l.39-1.373c2.851.872,5.765,1.362,8.533,2.752a4.722,4.722,0,0,0,2.447.734c.708-.086,1.325-.615,1.873-1.77-.478-.194-.862-.328-1.25-.464l-2-.671-2.117-.6c-1.418-.4-2.831-.833-4.237-1.353-.46-.168-.843-1.316-1.193-2.24q.687-.7,1.377-1.413a35.357,35.357,0,0,1,5.047.794A15.557,15.557,0,0,1,497.9,432c5.922,3.019,12.115,6.248,18.105,11.142,3.6,2.956,7,7.2,11.208,8.57,1.765.613,3.626.786,5.389,1.59a37.736,37.736,0,0,1,3.489,1.675l3.548,1.69.42-1.331c-1.239-1.3-2.356-3.086-3.675-3.805a28.008,28.008,0,0,0-3.694-1.795,40.819,40.819,0,0,1-3.655-1.85,55.518,55.518,0,0,1-7.79-5.824c-1.149-1.045-1.939-3.448-3.075-4.286a159.492,159.492,0,0,0-13.6-9.122,51.977,51.977,0,0,0-5.4-2.723l-2.709-1.116-.483-.173.375-.339-.024.063L497.5,423.3h-.042c.125-.117.251-.227.375-.347a5,5,0,0,0,1.516,1.653,42.738,42.738,0,0,0,6.02,2.484q4.647,1.635,9.294,3.28c.758.259,1.678-.367,2.292.2,4.77,4.428,9.972,6.586,15.25,8.3a14.268,14.268,0,0,0,3.057.649c1.026.138,2.048.257,3.081.328l.1-1.29c-.844-.682-1.69-1.386-2.521-2.128a25.379,25.379,0,0,1-2.422-2.363,10.3,10.3,0,0,1-2.567-4.3c-.821-4.057-2.729-5.967-4.727-7.012-6.6-3.334-13.267-6.8-20.073-9.743-.24-.11-.491-.227-.744-.341a17.306,17.306,0,0,1,2.058-2.989c3.116,1.021,6.2,2.1,9.135,1.9,3-.2,5.583,1.96,8.237,3.33l-.212.16.145.453c.085-.069.213-.1.245-.218A.906.906,0,0,0,525,415a8.437,8.437,0,0,0,3.051.95c3.366.24,6.773,2.726,10.141,3.764a39.89,39.89,0,0,0,9,1.9c.448.037.91.121,1.359.142a3.885,3.885,0,0,0,1.3-.2c.814-.3,1.492-1.031,1.857-2.738-.361-1.4-.643-2.493-.661-2.559-1.015-.268-1.939-.427-2.835-.712-.189-.067-.364-.125-.548-.188.592-.075,1.147-.151,1.684-.261,5.509-1.131,10.922-2.52,16.663-2.853a32.811,32.811,0,0,1,4.366-.007,36.822,36.822,0,0,1,4.5.706,40.384,40.384,0,0,1,9.618,3.49c3.454,1.755,7.618,1.208,11.461,1.714l-.221-1.178c-2.706-.954-5.412-1.9-9.594-3.379,5.1-.13,8.933-.335,12.68-.326.741.227,1.479.44,2.221.669a10.747,10.747,0,0,0,1.774.289c-.437-.315-.881-.576-1.321-.87,1.441.061,2.887.14,4.347.272,1.822.261,3.65.527,5.466.79l-.2-1.372q3.244,2.407,6.487,4.806a6.538,6.538,0,0,0,1.631.607,6.909,6.909,0,0,1-.819-2.173c0-.022.006-.041.006-.062q3.739,2.088,7.425,4.154c-2.223,1.875-3.693,3.116-5.523,4.657,10.476,2.328,19.832,4.008,30.835,7.294-3.138-1.843-6.161-3.625-9.1-5.352-2.939-1.711-5.836-3.107-8.649-4.623-4.99-2.62-9.8-5.142-14.579-7.655.109-.252.221-.5.322-.74a15.924,15.924,0,0,1,.916-1.672c-.025-.015-.051-.045-.077-.062,7.276,2.922,14.578,5.706,21.8,8.975,8.144,4.144,16.2,8.794,24.28,13.211l.321-.654-5.359-4.73.207-1.109c2.773.99,5.547,1.987,9.969,3.576l-14.165-10.24a162.253,162.253,0,0,1,18.119,7.8c8.185,4.454,16.235,9.9,24.421,13.863,2.437,1.194,5.236-.827,7.611-1.755.286-.11-1.118-2.652-2-4.655-4.928,6.329-11.251-6.578-16.355-4.618,1.054,1.073,2.123,2.152,3.194,3.233l-1.056.391c-4.07-2.173-8.141-4.35-12.273-6.56-2.054-1.161-4.172-2.056-6.294-3.067q-3.188-1.49-6.454-3.015c2.751-2.967,5.085-5.492,7.672-8.282-4.947-1.178-10.038-2.391-14.3-3.408,1.138,3.056,2.024,5.432,2.909,7.81a67.579,67.579,0,0,0-6.817-3.237c-1.958-.676-4.685-1.608-5.7-.883-2.517,1.791-5.1,1.263-7.69-.106-2.615-1.228-5.239-3.274-7.8-4.7-3.807-2.11-7.279-5.665-11.087-7.361-2.361-1.042-4.728-2.055-7.106-3.062-.416-1.017-1.253-1.016-1.917-1.357a31.771,31.771,0,0,0-3.176-1.178c.173.233.316.423.473.63-1.552-.634-3.088-1.277-4.661-1.892-5.6-1.947-11.346-3.943-17.35-6.027,4.512.594,8.238,1.079,11.959,1.571a51.226,51.226,0,0,0-8.286-3.843q5.45-.537,10.9-1.077c1.2.265,2.4.524,3.6.785l24.828,6.9a14.8,14.8,0,0,1,2.492,1.094c.821.427,1.467.837,1.467.837-.945,5.125,4.479,3.977,5.26,5.1,2.435-.859,4.376-1.28,6.343-1.86l1.4,2.024-6.158,6.714c4.119,1.426,7.682,2.657,11.24,3.891-.628-2.426-1.255-4.856-1.891-7.309,7.865-2.266,7.884-2.259,12.771,2.652l-5.68-.473.45,1.7c3.766.9,7.519,1.61,11.316,2.76,2.234.678,4.548,1.254,6.822,1.987a29.5,29.5,0,0,1,6.517,3.287c4.823,3.332,8.835,8.93,13.641,12.167a84.394,84.394,0,0,0,8.508,5.125,30.86,30.86,0,0,0,8.092,2.928c6.826,1.029,12.64-1.055,18.937-1.787L749.5,433.22l-.109-2.475a110.215,110.215,0,0,1-22.1-13.108,82.781,82.781,0,0,1-17.741-19.491c.005-.015.014-.034.02-.048a69.835,69.835,0,0,1,12.832-1.073c5.348-.1,10.657.38,16,.514,2.929.076,7.07-.749,8.659.058,11.241,5.73,24.187,3.721,37.405,2.085,5.68-.708,11.608-.529,19.181-.814,1.9-1.111,5.4-4.813,9.173-5.039,11.161-.675,14.168-4.482,15.989-9.908-3.406.654-6.577,1.265-9.608,1.85,2.683-5.74,5.166-11.045,8.14-17.4-7.752.3-14.265.544-21.945.835,3.1-4.528,6.5-9.5,10.518-15.383-8.643,2.765-14.2,4.545-19.756,6.321,13.852-10.822,14.447-11.332,13.237-13.58-7.9,2.851-15.653,5.654-24.3,8.772-5.12-9.955,15.41-7.255,17.271-12.519-2.161-.5-4.531-1.055-6.9-1.6q6.512-.713,13-1.379l.037.28c6.238-.518,12.486-.969,18.724-1.655.224-.021.428-.274.622-.622q6.007-.615,12.015-1.241l-.067.142c-.016.041-.033.086-.047.127.026-.037.054-.08.08-.119l.07-.157c24.22-2.54,48.518-5.373,73.494-9.737l-16.886-3.908M647.106,111.62l.313-.048c-.006.063.021.138-.022.173a1.652,1.652,0,0,1-.314.17Zm-2.244,1.524.463.471c-.52.28-.987.555-1.47.772-.082.037-.338-.255-.323-.266.427-.335.881-.652,1.33-.976M662.634,59.72c-2.534,1.006-5.069,2.013-7.882,3.127-.236-4.422-.233-4.422,7.882-3.127m21.178-36.887.316,1.573-8.454,2.879-.441-1.8Zm-518.13,198.04c.285-.2.564-.388.829-.568,1.176.149,2.329.291,3.464.434q-2.147.073-4.293.134m-46,29.107,19.279-3.177-9.742-3.162,1.023-1.681,23.78,3.492c-9.309,8.354-21.178,4.281-34.34,4.528m59.54.772c.94-.993,1.881-1.981,2.822-2.976.155,1.591.237,3.22.489,4.8q-1.652-.911-3.311-1.823m12.372-15.486c.128-.151.256-.3.384-.457q3.06.24,6.135.447l-.565.3-5.954-.289M144.206,360.2c1.046-.9,2.739-1.474,4.713-2.726-5.9-.019-10.478-.034-15.055-.05-.667-.511-1.311-1.118-1.994-1.6l37.616,1.247.018,1.923c-8.3,1.537-16.785,1.442-25.3,1.209m56.173-15.466a3.374,3.374,0,0,0-.712-.3q-7.429-1.987-14.887-3.986l.368-2.2c2.711.758,5.4,1.618,8.134,2.257,2.835.688,5.688,1.219,8.548,1.666-.536.831-1,1.7-1.451,2.568m17.857,64.042.251.373a4.643,4.643,0,0,1-.846.281c-.089.017-.168-.231-.254-.362.284-.1.565-.194.849-.293m-7.7,6.055c7.786-2.784,9.1-2.931,17.361-1.511-6.843.594-12.091,1.053-17.361,1.511m101.6,27.679a2.985,2.985,0,0,1-.467.5,1.956,1.956,0,0,1,.018-.55,2.884,2.884,0,0,1,.468-.505,1.874,1.874,0,0,1-.019.55m2.9-4.23a3.34,3.34,0,0,1-.484.483,1.89,1.89,0,0,1,.019-.544,3.248,3.248,0,0,1,.485-.486,2.064,2.064,0,0,1-.021.548m7.278-8.537a3.07,3.07,0,0,1-.485.466,1.988,1.988,0,0,1,.032-.546,2.807,2.807,0,0,1,.488-.458,2.08,2.08,0,0,1-.036.539m15.441,19.291-4.115,5.311a3.7,3.7,0,0,1-1.947,1.114c-.24.086-.52-.28-.535-.645a3.218,3.218,0,0,1,.447-1.485c1.669-1.849,3.342-3.677,5.048-5.41s3.377-3.535,5.1-5.2l.133,1.018c-1.4,1.7-2.756,3.53-4.135,5.294m8.2-8.57c-.092.075-.19-.039-.284-.069a3.958,3.958,0,0,1,.249-.585.864.864,0,0,1,.4.147,2.642,2.642,0,0,1-.364.507m10.2,88.084c-.035.08-.207.034-.319.043l.21-.591.337-.265a6.121,6.121,0,0,1-.228.813m8.11-17.6a13.266,13.266,0,0,1,2-.788c-.15.4-.29,1.053-.449,1.157a24.156,24.156,0,0,1-2.273,1.241,7.318,7.318,0,0,1,.725-1.61m-2.243-1.86.111.585-.353.253c-.021-.119-.088-.274-.055-.354a3.132,3.132,0,0,1,.3-.485m-1.849,6.006-.662.034.509-1.7c.186.158.483.2.521.5a4.361,4.361,0,0,1-.368,1.167m.693,2.9c2.327-1.843,4.778-3.541,7.145-5.3-2.219,3.964-4.539,6.705-7.145,5.3m8.573-9.322c-.235.27-.543.287-.819.408l.6-1.275.821-.354a6.221,6.221,0,0,1-.606,1.221m.556-7.6-1.264.184c.238-.432.473-1.1.708-1.241a2.709,2.709,0,0,1,1.2-.207c-.194.386-.388.762-.645,1.264m2.429,8.332c-.147.155-.413-.294-.909-.708a13.724,13.724,0,0,1,1.791-1.731c.412-.238.825-.022,1.235-.006-.717.818-1.4,1.711-2.117,2.445m5.848-17.133c-.049.047-.144-.175-.217-.266a3.523,3.523,0,0,1,.378-.559c.044-.043.137.173.209.27a3.366,3.366,0,0,1-.369.555M708,216.623c1.73-1.495,3.5-3.028,5.337-4.62,2.785.119,5.569.237,8.349.367,4.91.244,9.814.626,14.683,1.167,1.02.112,1.889,1.157,2.826,1.774-1.069.55-2.156,1.582-3.2,1.582-9.333.026-18.677.084-27.994-.27m2.086,73.643c-.112.065-.227.127-.342.19-.008-.089-.014-.184-.029-.274.117.032.24.058.371.084m-27.7,15.206a96.96,96.96,0,0,1-12.528.82c3.137-.958,6.331-1.659,9.525-2.341.651.4,1.307.779,1.947,1.157a3.154,3.154,0,0,0,1.056.363M576.045,351.107c-1.965-1.122-3.93-2.223-5.906-3.23l.047-.209c.158.043.315.086.47.117.052.015.119-.279.187-.58a57.145,57.145,0,0,0,5.749,3.751l-.547.149m-48.129,54.81-3.618-3c-.467-.835-.934-1.668-1.386-2.478l.148-.445c5.794,1.819,11.6,3.511,17.346,5.682l.057,2.193-6.031-1.495-6.065-1.226a.527.527,0,0,0-.482.252.918.918,0,0,0,.032.52M400.841,425.235a6.949,6.949,0,0,1-.718,1.56,8.864,8.864,0,0,1-1.634,1.159,8,8,0,0,1,.841-1.58,10.715,10.715,0,0,1,1.511-1.139M382.8,414.958c-.066.017-.135.041-.2.054.029-.043.054-.078.08-.116.039.019.08.041.119.061m-146.957-62.98a14.9,14.9,0,0,1,1.254-1.07c-1.586-.719-3.3-2.186-4.733-2.015-.663.076-1.323.168-1.991.272l.579-.812-.85-.619-.268,1.515c-.724.119-1.46.252-2.218.393-.907-.255-1.719-.563-1.969-1.195a4.735,4.735,0,0,0-.735-1.31l4.441-.125c-.112.1-.223.186-.336.294l4.4-.408,6.7-.186.268-.591c-.316-.03-.631-.058-.948-.086.266-.05.534-.091.8-.14,3.384-.665,6.788-1.269,10.184-1.925.686,1.77,1.44,3.354,2.751,3.934.393.175.794.321,1.188.483a7.972,7.972,0,0,0-1.528.375l-.093-.52-.6.274a3.417,3.417,0,0,0,.1.492,4.447,4.447,0,0,0-1.833,1.7l-8.234,2.219q-3.148-.478-6.336-.952m395.942-248c.025-.019.049-.041.075-.062h.028c-.036.021-.067.043-.1.062m.279,3.606c.2-.1.412-.2.616-.3.27-.143.533-.285.8-.423-.278.266-.56.542-.872.842-.214-.048-.39-.086-.545-.117m1.587,2.624.176-.134.741-.112a3.982,3.982,0,0,1-.7.529c-.017.009-.036.007-.053.015-.071-.192-.128-.317-.168-.3m6.3,12.827c.4.19.8.36,1.192.565.332.17.663.365.994.542a19.5,19.5,0,0,1-1.917.868c-.351-.218-.7-.432-1.06-.615-.276-.134-.563-.209-.845-.317.4-.259.792-.514,1.193-.779.146-.089.3-.175.443-.265m-397.58,85.9c-.489-.034-.977-.063-1.469-.1.311-.075.624-.142.932-.218.178.106.359.218.537.317m126.446-47.328c.015-.1.019-.2.03-.291.534-.473,1.072-.952,1.573-1.31q.008.822.02,1.685c-.54-.026-1.084-.058-1.623-.084M619.2,102.837c.034-.08.059-.19.105-.218a2.209,2.209,0,0,1,.373-.129c-.037.071-.062.194-.111.216a1.877,1.877,0,0,1-.367.13m.938,16.744a49.463,49.463,0,0,1-4.534,2.262c.687-.68,1.5-1.523,2.6-2.6-.1-.03-.187-.054-.283-.084l.549-.313c.408.043.816.078,1.227.1-.038.03-.075.056-.113.086l.185-.084c.307.017.613.037.918.047.126.117.048.266-.553.581m-7.582,5.443c-.759.4-1.486.861-2.2,1.321.487-.442.987-.867,1.488-1.29a3.891,3.891,0,0,1,.709-.032m3.23,7.087.006-.043a3.341,3.341,0,0,1,1.082-.559Zm-3.891,3.867-.043-.233c1.2-.706,2.4-1.442,3.607-2.091l.041.237c-1.205.645-2.4,1.379-3.6,2.087m9.35-11.778a4.423,4.423,0,0,1,2.511-.656,10.583,10.583,0,0,1-1.622.46c-.288.058-.586.125-.89.2m10.748-2.143.1-.2c.185-.052.37-.114.556-.175-.217.127-.435.255-.653.378m59.325,17.491c.183-.4.359-.79.547-1.185l.506-1.049c.751.332,1.487.656,2.2.962l.381.186c-1.2.348-2.409.714-3.639,1.086m-72.455,65.936.57-.048.734,1.662c-.377.157-.753.309-1.131.466-.037-.7-.1-1.388-.174-2.08m-.893-4.8c-.022-.086-.039-.173-.064-.257l.123-.056c.184-.076.35-.143.507-.2-.186.177-.377.345-.566.514m11.291-73.612-.3.224-.029-.056c.108-.063.215-.121.323-.184l.007.017m-29.484,14.271c.981-.693,1.994-1.347,2.93-2.1l.031-.03c.866-.483,1.732-.967,2.6-1.468a21.552,21.552,0,0,1,2.929-1.351c.073.011.148.015.22.022a9.22,9.22,0,0,1-1.1.837c-2.515,1.353-5.021,2.836-7.6,4.094m5.783-.488a3.479,3.479,0,0,1-.345.266c-.036.02-.078-.063-.116-.1l.346-.274Zm-5.282,3.533.019-.022.2-.363-.174.363-.044.022c-.033.039-.065.078-.1.119-.28.149-.557.3-.834.449-.037.013-.076.022-.112.032.344-.2.692-.4,1.041-.6m8.928-6.878c-.054.009-.063-.067-.093-.11l.3-.237.125.2a1.763,1.763,0,0,1-.328.145M277.256,303.952c-.738-.175-1.492-.356-2.255-.533l1.739-1.085c.059.181.125.354.18.539.109.369.221.723.336,1.079m-10.347-17.733a51.984,51.984,0,0,0,3.06,4.677c-.049.03-.1.062-.147.093-.4-.062-.8-.127-1.2-.179-1.1-.145-2.2-.248-3.293-.328-.839-.444-1.682-.9-2.554-1.424l-.64-2.313c1.588-.171,3.18-.35,4.771-.527m48.842-98.605a2.419,2.419,0,0,1-.382.259l-.027-.015.577-.641c-.052.132-.055.3-.168.4m2.225-6.383c.109.349.207.693.274,1.014a3.015,3.015,0,0,1-1.129.7,2.3,2.3,0,0,1-1.322-.3c.533-.552,1.069-1.1,1.617-1.668.2.091.384.177.559.255m25.31,207.656c1.141-.019,1.135.609.846,1.407l-.846-1.407M719.06,165l5.49-2.9c.423.175.844.354,1.265.529l-6.468,3.55Zm-72.7-37.638a.079.079,0,0,0-.028.011c-.189.047-.383.11-.55.164-.646.209-1.27.363-1.89.524q-.6-.623-1.221-1.18c.472-.33,1.03-.794,1.771-1.418.509.309,1.016.609,1.521.939.355.235.73.412,1.1.617-.233.108-.465.239-.7.343M618.4,123.64a6.938,6.938,0,0,0-1.871,1.506c-1.728,2.147-3.047,1.6-4.481,1.972a1.18,1.18,0,0,1-.506-.063,6.65,6.65,0,0,1,.819-.576,42.7,42.7,0,0,0,4.8-3.049c3.2-1.3,6.42-2.607,9.829-4,.043.006.084.017.126.022-2.909,1.336-5.829,2.613-8.714,4.184m5.412-10.072c-.291-.026-.58-.045-.869-.073l2.4-1.416.175.567ZM515.945,89.828a6.709,6.709,0,0,1-.49,1.511c-.165.354-.3.693-.439,1.025-.317.117-.634.233-.95.347l-.281-.98c.722-.628,1.438-1.271,2.16-1.9M505.032,98.24c-.2.011-.4.021-.6.037.655-.389,1.311-.771,1.967-1.163h.029ZM500.381,409.8c-.8-.826-1.65-1.61-2.507-2.38.113-.084.224-.175.336-.259.7-.5,1.381-.956,2.062-1.392a8.629,8.629,0,0,1,1.085,1.2,4.647,4.647,0,0,0,1.084,1.068l-1.671,1.441Zm1.373,6.185c.16.55.409.919,1.007.643a9.958,9.958,0,0,1-.32,2.65,19.188,19.188,0,0,1-3.589-.734c.881-.814,1.782-1.6,2.9-2.559m82.831-33.728q1.018.224,2.035.445l-1.214.179c-.276-.207-.548-.417-.821-.624m-24.077-24.986a28.32,28.32,0,0,0-5.6-.227c-.073,0-.145-.009-.215-.006a3.936,3.936,0,0,1,1.382-.444,9.227,9.227,0,0,0,5.691-3.179,21.206,21.206,0,0,1,2.809-.065c-.749.665-1.462,1.621-2.229,2.3-.609.537-1.221,1.083-1.833,1.625m125.943-55.345c1.147.386,2.277.85,3.426,1.226a20.238,20.238,0,0,1-3.749,1.495c.117-.745.207-1.942.323-2.721m3.981,12.627a7.676,7.676,0,0,1,1.695-1.426l6.972-.335.446,1.5-9.684.911c.191-.214.385-.419.572-.648m63.341-17.389c-.77-1.036-1.745-2.35-3.231-4.353l46.9-5.52.4,1.209q-22,4.33-44.069,8.664m17.253-52.725a13.122,13.122,0,0,1,1.1-1.072c.083.013.178.043.258.05a4.03,4.03,0,0,0,3.532-1.688,1.454,1.454,0,0,0,.2-.386,10.944,10.944,0,0,1,5.077.16l.575,1.236q-5.363.847-10.74,1.7m44.8-25.3c.708,2.218,1.916,4.786,1.494,4.882-4.784,1.135-9.821,1.9-14.79,2.758l-1.471-1.787,14.767-5.853m-23.016-6.261.154.268-.552.151c.139-.13.269-.278.4-.419m9.049,6.381.664,1.9c-2.839.8-5.74,2.27-8.513,2.292q-10.931,0-21.845,0a7.028,7.028,0,0,1-1.5-3.121c10.6-1.267,21.131-2.767,31.2-1.073m-23.494-5.229c.089.175.166.354.261.524a7.237,7.237,0,0,0,1.831,1.97l-1.826.492-1.722-2.277a10.7,10.7,0,0,0,1.456-.708M747.647,166.9l.178.9-6.509,6.8.406.874c2.3-1.468,4.6-2.935,7.113-4.538a43.527,43.527,0,0,1-1.64,9.047,139.491,139.491,0,0,1-15.425,1.07c.984-.973,1.981-1.96,3.01-2.978-1.856-.451-3.093-.753-4.329-1.051l.072-.93,8.549-4.726Zm-2.919-7.441.046,1.392a22.422,22.422,0,0,0-2.587,1.483,17.576,17.576,0,0,1-3.641,1.655,7.045,7.045,0,0,0-.953.561,6.415,6.415,0,0,0-1.084-1.452c-.3-.261-.844.151-1.276.259a7.133,7.133,0,0,0,1.258,1.631,1.069,1.069,0,0,0,.388.157,6.328,6.328,0,0,0-1.441,2.328c-.393,1.051-3.293,1.739-5.012,2.054-3.393.615-6.77.852-10.157,1.247l-.086-.812c3.432-1.823,6.894-3.546,10.289-5.522,1.4-.814,2.623-2.8,3.957-3.181a72.99,72.99,0,0,1,10.3-1.8m-13.251.065-1.947,1.073a1.994,1.994,0,0,0-.382-.276c-.217-.1-.433-.2-.648-.3l2.735-1.442ZM718.495,138.3c-1.72.777-3.466,1.509-5.144,2.4l-.6-1.929c.632-.539,1.271-1.051,1.906-1.575.234.063.471.116.7.179,1.048.287,2.091.608,3.133.928m-10.057-2.708a7.037,7.037,0,0,0,.641,2.115c-1.637.019-3.111.037-4.481.058-2.488-.9-4.987-1.778-7.5-2.6l-.208-2.218c3.888.781,7.73,1.686,11.551,2.643m-9.373-15.466.052.231c-2.062,1.564-4.162,3.138-6.285,4.629-.411.222-.822.444-1.231.667l-7.669,4.307.483.19a35.694,35.694,0,0,1-4.515,1.934,22.621,22.621,0,0,0,1.9-2.052c-1.371.373-2.682.676-3.966.967a75.118,75.118,0,0,1,21.226-10.874m-60.711,2.193c-.714.373-1.419.772-2.122,1.161-.283-.05-.565-.114-.852-.142l2.031-1.364c.313.116.628.216.942.345m2.914-6.252c.349-.062.746-.127,1.152-.2a8.677,8.677,0,0,0-1.85.917c-.271.17-.544.339-.812.511-.581-.222-1.159-.442-1.742-.645a3.034,3.034,0,0,1,.984-.565c.8-.155,1.47.13,2.269-.022m-2.374-14.711.007.006c-.427.27-.856.524-1.282.792q-1.195.746-2.382,1.517l-.04-.069c1.231-.749,2.449-1.578,3.7-2.246m1.473-4.105c.221-.576.714-1.39-.807-.744-1.277.531-2.644,1.649-3.723,1.938-2.528.608-4.748,2.134-7.083,3.325l-.017.026c-.308.266-.613.574-.916.861.3-.287.591-.6.892-.868l.041-.019a7.118,7.118,0,0,1,.631-.982c.465-.546.793-.932.977-1.2,2.155-1.278,4.3-2.641,6.428-4.042a13.461,13.461,0,0,1,4.947.993c-.456.233-.913.475-1.37.714M634.733,43.3c.461-.047.924-.1,1.387-.127-.641.244-1.278.5-1.917.745a1.207,1.207,0,0,0,.53-.619m-71.88,11.1c-5.3,6.159-10.13,4.258-15.025,3.308l15.025-3.308m-65.868,43.83,1.86-.958,1.879-.909,3.754-1.884c2.5-1.26,4.988-2.648,7.514-3.658l.264,1.222c-.746.712-1.488,1.42-2.229,2.143q-1.955.724-3.91,1.433a3.283,3.283,0,0,0-1.547.239c-.82.363-1.641.773-2.463,1.2-3.022,1.083-6.04,2.13-9.051,3.107q1.969-.953,3.931-1.938m-18.823,9.066q4.7-2.147,9.388-4.469c.2-.1.4-.19.592-.287-.17.117-.348.233-.509.345a101.7,101.7,0,0,1-10.692,6.727c-.023-.021-.069-.021-.083-.048-.9-1.681-1.934-2.2-3.028-2.156,1.466-.253,2.906.544,4.332-.112m-13.282,3.621q3.079-1.373,6.172-2.533a18.853,18.853,0,0,1-3.576,1.8c-.863.239-1.73.47-2.6.736m-11.588,5.55c-.1.056-.2.1-.3.16l-.061-.084c.121-.015.242-.052.364-.076m-15.45,30.407c-.031.021-.063.045-.094.067a7.747,7.747,0,0,0-.4-1.131l.053-.019c.121.347.27.706.444,1.083m-16,4.137q1.272-.344,2.557-.7c.83-.261,1.665-.526,2.5-.785.64-.212,1.283-.449,1.922-.671a1.69,1.69,0,0,0,.913.311c1.975-.08,4.006-3.175,6.015-.818-1.066.76-2.126,1.528-3.209,2.255a35.221,35.221,0,0,1-4.941,2.855,21.214,21.214,0,0,1-2.661,1.019,18.337,18.337,0,0,1-2.911.626l-.044.035.087-.013-.43.35c-.027.009-.055.015-.083.024.144-.119.286-.24.426-.362-3.934.712-7.881,1.429-13.032,2.365,4.757-2.887,8.077-5.283,12.891-6.5m-5.778-4.025A8.507,8.507,0,0,1,414,148.216a5.816,5.816,0,0,1-2.122-.19l-.086.032L411.75,148l-.819-.192c.178-.037.418-.138.521-.093a.8.8,0,0,1,.3.285l.08.019.052.011c.852-.307,1.706-.656,2.549-.889a8.081,8.081,0,0,1,1.628-.157M229.086,211.364c1.887-.315,3.759-.7,5.623-1.1a2.828,2.828,0,0,0,1.973.671l-.142,1.934c-4.119.112-8.24.25-12.362.391-.278-.106-.556-.207-.832-.307a32.848,32.848,0,0,1,5.739-1.591m1.416,85.727c1.311,3.31,2.107,5.319,2.868,7.236-.456.175-.923.343-1.381.518a12.852,12.852,0,0,1,.664-1.232c.07-.116-.7-.593-.976-.526-2.183.615-4.365,1.241-6.536,1.9,1.505-2.216,3.036-4.471,5.361-7.9m-7.466,46.769q6.323-.179,12.637-.358c-.291.089-.581.142-.869.248a15.9,15.9,0,0,0-3.266,1.571q-4.323-.389-8.648-.783Zm-16.162,3.779,12.912-.36a5.174,5.174,0,0,0-.148.609c-.1.645-.183,1.161-.262,1.621q-6.233-.931-12.5-1.871m70.142,9.517a73.989,73.989,0,0,0-8.07,2.344c-1.46.507-2.91,1.072-4.248,1.64a30.424,30.424,0,0,0-3.582,1.644,39.819,39.819,0,0,1-6.906,3.351c-5.512,1.774-11.09,3.375-16.667,4.789-.528.125-1.051.244-1.576.373-3.528-1.109-7.225-2.266-11.657-3.658,4.8-.816,8.118-1.379,13.618-2.316-6.124-1.036-10.6-1.793-16.089-2.724a11.62,11.62,0,0,1,.6-1.029,1.139,1.139,0,0,1-.106-.069c1.664-.248,3.424-.36,4.991-.5a1.763,1.763,0,0,0,.185.486c.769-.242,1.533-.518,2.32-.812a4.486,4.486,0,0,0,1.854-.708l.282-.112c-.02-.035-.037-.069-.059-.106a1.15,1.15,0,0,0,.24-.518c1.05-.263,2.1-.533,3.126-.867q1.764-.629,3.492-1.357a19.514,19.514,0,0,1,3.924-1.122c5.976-.173,11.443-.332,16.132-.47l-7.923-1.183a11.737,11.737,0,0,0,3.73-2.19l1.6.278c1.01,2.156,2.755,2.255,4.7,1.728a31.7,31.7,0,0,0,3.054-1.1c.5-.2.984-.406,1.461-.587,1.055.034,2.144.17,3.211.239.147.16.3.319.444.481a2.228,2.228,0,0,0-.2-.468,8.5,8.5,0,0,0,2.654-.216c.976.071,1.958.1,2.94.127a8.592,8.592,0,0,0-.617.976c.487-.026,1.113.08,1.425-.123a1.773,1.773,0,0,0,.553-.826c1.116.007,2.235-.006,3.359-.065,2.291-.091,4.329-.162,6.186-.188-1.024,1.2-2.047,2.395-3.072,3.626-1.772.421-3.542.837-5.31,1.23m10.481,5.529a3.429,3.429,0,0,0-.155,1.655c-2.68.539-5.358,1.07-8.037,1.614a14.694,14.694,0,0,1,3.914-4.249l6.4-1.411a11.068,11.068,0,0,0-2.126,2.391m2.1-9.556c-.07.026-.142.045-.214.071a3.352,3.352,0,0,0-1.051.861c-.039.041.092.1.266.142-.067.075-.141.151-.211.227-.248.061-.5.121-.749.184.4-.729.8-1.4,1.215-2.018l.886-.266c.2.007.4.011.591.019-.245.259-.49.52-.733.781m-17.271,35.795a21.173,21.173,0,0,1,3.576-.147l.275-.772c2.473-.158,4.928-.244,7.43-.509a7.219,7.219,0,0,1-2.515,1.724c-.788.311-1.625.581-2.451.861q-3.21.414-6.411.781c-.715.084-1.29-.4-1.926-.617.678-.46,1.382-1.2,2.022-1.321m-7.62,3.069a5.119,5.119,0,0,1,1.547.112,6.931,6.931,0,0,1-1.568.8,4.993,4.993,0,0,1-1.546-.123,7.187,7.187,0,0,1,1.567-.785m-12.864,3.187q3.129-.735,6.257-1.468l.045.464-6.266,1.476Zm6.926,11.42c-.049.026-.1.052-.155.078l-.7.65c.061-.125.078-.281.193-.371a3.025,3.025,0,0,1,.507-.28l.108-.1.364-.1c.742-.283,1.49-.565,2.234-.848-.047.1-.1.2-.141.285l-2.092.563Zm8.568-2.333-2.748.736-.879.239a3.025,3.025,0,0,0-.411-.365q1.89-.716,3.778-1.437c2.647-1.092,5.273-2.257,7.873-3.451.908-.419,1.817-.8,2.726-1.172,1.017.365,2.024.723,3.026,1.083.1.037.194.1.294.134l-.011,0-10.915,3.392Zm8.921,4.32-.059-.593q6.518-1.806,13.032-3.615c-.037.192-.07.382-.113.566.248-.27.516-.509.78-.753q1.772-.486,3.541-.98l.443.492ZM296.6,418.631c-.237-1.774-.493-3.535-.756-5.292,1.543-.24,3.085-.5,4.619-.805q-1.941,3.013-3.863,6.1m6.695-15.115c-.242-.045-.487-.088-.732-.127a3.319,3.319,0,0,1,.8-.479,1.8,1.8,0,0,1,.738.106q-.4.246-.8.5m24.13,17.493-.034-.8a15.513,15.513,0,0,0,5.165-2.4c-.013.013-.029.048-.042.058-1.7,1.17-3.388,2.119-5.089,3.149M346,406.985q-2.765.825-5.533,1.575c-.24.062-.478.134-.718.2q2.838-2.669,5.688-5.229,1.891-.3,3.78-.65c-1.1,1.262-2.169,2.641-3.217,4.105m5.081,19.6c-.078.026-.126-.157-.187-.242l.332-.57.273.447a1.986,1.986,0,0,1-.418.365m17.2-4.4a16.418,16.418,0,0,1,2.143-1.809l.181,1.4Zm12.992,8.168c-.261.227-.568.138-.855.2a6.159,6.159,0,0,1,.3-1.368,47.734,47.734,0,0,0,5.2-4.443c.77-.1,1.542-.2,2.311-.287q-3.486,2.932-6.953,5.9m6.107-20.376c.678-.518,1.36-.982,2.044-1.433.419.067.837.112,1.251.151-1.088.406-2.189.835-3.295,1.282m10.93,31.768c-.545.46-1.233-.058-1.86-.123a18.194,18.194,0,0,1,1.511-3.349c.449-.6,1.254-.634,1.889-.829,1.244-.386,2.476-.708,4.332-1.224-2.311,2.214-4.068,4.044-5.873,5.525m17.188-17.368.018-.054-.067,0,.036.048q-3.345,4.224-6.688,8.457c-.152.186-.672.108-.732-.134a3.087,3.087,0,0,1,.253-1.338c.308-.87,2.639-3.144-.048-1.871a42.083,42.083,0,0,0-5.614,3.865l.024.013-.912,1.946.88-1.955.007,0c-.6-.28-1.32-1.113-1.763-.688-2.274,2.134-4.424,4.784-6.662,6.953a30.563,30.563,0,0,1-4.573,3.274c-.352.239-.725-.013-1.089-.039a9.439,9.439,0,0,1,.878-2.13,30,30,0,0,1,3.416-3.634c3.852-3.444,7.829-6.418,11.683-10.044a17.045,17.045,0,0,1,7.308-4.21c1.7.125,3.4.28,5.107.363a4.084,4.084,0,0,0,.112.4Zm9.817,62.606c-.267.233-.592.181-.889.259l.712-1.189c.3-.075.6-.149.9-.222a5.467,5.467,0,0,1-.723,1.152m33.537-52.207c.112-.134.218-.289.329-.427.067,0,.132,0,.2,0-.177.138-.353.289-.527.423m3.628-2.937c-.366-.171-.736-.339-1.1-.509.27-.4.542-.807.81-1.215.339.36.672.74,1.007,1.12-.24.2-.475.4-.715.6m20.055,1.463c-.014.028-.03.045-.044.075a1.977,1.977,0,0,1-.9-.561,1.083,1.083,0,0,1-.127-.481c.089-.089.173-.19.267-.268.268-.25.79-.3.914-.086a1.84,1.84,0,0,1-.111,1.321m1.125-13.263c.884-.734,1.777-1.431,2.665-2.151.126.013.249.026.376.037-.389,1.823-1.515,2.521-3.04,2.113m7.646,1.955c.347-.429.689-.855,1.046-1.254.072-.082.152-.151.225-.229l.035,1.245c-.436.073-.872.155-1.306.239m2.383.524V422.5l.042-.009c-.013.009-.03.015-.042.026m-.648-6.793-.015-.3a4.7,4.7,0,0,1,1.19-.608c-.39.307-.783.608-1.175.911m2.234-5.483a13.166,13.166,0,0,1,4.2.311l-1.617,1.338a23.162,23.162,0,0,1-2.586-1.649m.822,7.382c.666-.512,1.335-1.025,2-1.558.089.05.18.084.266.134.225.13.251,1.44.352,2.3-.868-.322-1.741-.6-2.617-.878m7.824,6.368c-1.8-.7-3.6-1.321-5.4-1.9a3.493,3.493,0,0,1,.516-1.282,4.7,4.7,0,0,1,1.416-.067,7.694,7.694,0,0,1,3.557,1.565Zm2.066-6.125c3.249,2.031,6.495,4.063,9.734,6.157l-.156,1.573c-4.125-1.677-8.24-3.366-12.589-4.834.514-3.086,1.379-3.919,3.011-2.9m31.716-7.068c-1.921-.771-4.194-1.491-3.931,4.666a42.862,42.862,0,0,1-6.96-3.069c-1.136-.669-2.144-2.262-3.207-3.442.55-1.172,1.1-2.341,1.627-3.539.9.2,1.807.406,2.705.585l.008.028a8.063,8.063,0,0,0-1.25-.1c-.159.009-.238.272-.354.417,2.034.717,4.112,1.832,6.1,2.085,4.778.691,9.481,1.338,12.7,6.014-2.474-1.092-4.9-2.514-7.431-3.651m80.135.568a3.748,3.748,0,0,1-.537.026l.036-.229c.166.067.334.134.5.2m-14.842-31.391-.733-.2-13.117-3.6c-6.729-1.8-13.431-3.528-20.176-4.912-1.433-1.081-2.857-2.305-4.506-2.518-.062-.007-.125-.022-.186-.032l-.213-.675a10.3,10.3,0,0,1,3.8-2.354c1.276.283,2.548.613,3.824.928a30.342,30.342,0,0,0,8.145,1.1c2.566-.123,5.84-1.036,7.6,4.692.15.488.888.5,1.358.678.862.335,1.72.69,2.591.937l9.005,2.853.09-.486c-1.854-1.387-3.707-2.779-5.58-4.178a7.815,7.815,0,0,0,.687-.524c.5-.486,1-.973,1.5-1.459a6.65,6.65,0,0,0-1.118-1.036c.072,0,.147.009.22.006l-.119-1.659q-7.56-1.848-15.181-3.708c-.282-.138-.563-.285-.847-.425a45.938,45.938,0,0,0-9.523-3.9c-2.316-.527-4.624-1.146-6.94-1.67.592-.721,1.185-1.444,1.761-2.162a6.991,6.991,0,0,0,.776-2.234c.611.052,1.227.116,1.85.2,5.871.68,11.807,2.708,17.706,4.264v-1.167c-2.311-1.332-4.617-2.71-6.928-4.064a79.564,79.564,0,0,0,11.773-1.377,38.79,38.79,0,0,0,17.454.542,16.862,16.862,0,0,1,3.884,2.2c-1.622.585-3.051,1.1-4.372,1.582a1.506,1.506,0,0,0-.413-.468,5.174,5.174,0,0,0-1.1-.378,8.922,8.922,0,0,0,.576,1.183c-.95.343-1.841.665-2.7.976-.356-.112-.712-.229-1.063-.321-1.877-.492-3.805-.06-5.707-.032a12.088,12.088,0,0,1,2.771,1.8l-.01.006c.018.007.034.017.053.024a5.883,5.883,0,0,0,2.155,1.109c7.765,4.553-7.386,4.594-7.662,7.389,5.563-.648,11.123-1.362,16.693-2.005a21.893,21.893,0,0,1,4.352,2.691.279.279,0,0,0,.376.022,1.347,1.347,0,0,0,.437-.76,2.27,2.27,0,0,0-.324-1.137,2.563,2.563,0,0,0-1.011-.977c-.16-.052-.306-.158-.463-.222,2.833-.306,5.669-.593,8.509-.82,3.116-.244,6.4,1,9.595,1.571-2.2,1.539-4.038,3.339-6.693,4.56-4.231,1.94-9.164,3.377-13.511,5.251-3.315,1.435-6.061,3.811-9.347,4.9m-12.287-11.317c.923.173,1.827.309,2.719.4a6.87,6.87,0,0,1-2.609-.352l-.11-.048m60.222,29.272c-1.743-1.921-3.486-3.843-5.454-6.014-1.118.054-2.577.874-4.035.393q-11.162-3.662-22.331-7.326,5.006-.5,10.012-.991c-.5,3.317,2.189,5.749,10.39,5.035a55.574,55.574,0,0,0,8.742-1.01c2.792.037,5.137.106,7.479.134q1.1,1.646,2.2,3.3Zm17.032-.2c-.412-.341-2.605-2.147-4.8-3.956l.438-.969,6.388,2.985.749-1.29c-3.006-2.678-6.017-5.361-9.517-8.479,5.365-.114,10.856-.123,15.944-2.691.163-.08.312-.147.467-.225q1.577,1.138,3.16,2.283l-4.331,5.468c1.345.639,2.625,1.224,3.869,1.823-2.428,1.765-4.884,3.584-7.5,5.514-1.59-.145-3.2-.294-4.871-.462M688.8,415.265l-.857,1.247q-3.609-3-7.231-6c-2.409-2.069-4.889-3.772-7.357-5.691,6.971-5.279,13.933,3.308,22.266,7.8-4.808-1.523-8.139-2.575-12.556-3.977,2.418,2.793,4.077,4.709,5.736,6.621m10.484-43.133a48.515,48.515,0,0,1-9.707-5.453c1.109-1.263,2.4-2.57,3.792-4.128,1.975,1.243,5.458,2.462,6.042,4.074a7.589,7.589,0,0,1-.128,5.507m5.083-13.22c-5.465,4.146-9.753,1.88-15.232.829-1.728-.337-4.347.527-6.863,1.275-.167-.136-.341-.263-.506-.4-.55-.466-1.089-.939-1.62-1.414.031-.222.06-.442.09-.669,1.581.354,3.231.639,4.051.017,7.545-5.81,19.622.6,25.877-9.085l7.678,1.96c-4.807,2.616-9.881,4.758-13.475,7.49m25.4-32.3a8.511,8.511,0,0,0-5.718,3.259c.7.421,1.623.719,2.324,1.135-1.263.788-3.044,1.485-5.071,2.684,2.326-.149,4.469-.289,6.508-.421a.475.475,0,0,1,.024.043l-28.982,6.774c4.54-.171,10.7-.408,17.164-.652-2.861,4.877-2.861,4.877-17.85,6.971l5.353,1.366a18.276,18.276,0,0,0-2.708,2.689c-2.175,2.656-6.742,2.486-10.342.874-.26-.406-.519-.812-.786-1.232-.328.1-.646.192-.968.287a9.214,9.214,0,0,1-2.123-1.862c-2.249-2.762-5.257-6.017-9.507-2.546l2,2.035,2.7.79-2.716-.777-2.03-2.018a.3.3,0,0,1,.043-.03l0-.006c-.318-.268-.644-.486-.966-.734q-.562-2.032-1.125-4.068c.346.089.693.164,1.043.263,3.144.9,6.61.751,9.931.868a2.461,2.461,0,0,0,1.974-1.4,3.428,3.428,0,0,0-.382-1.834c1.482.082,2.934.164,4.381.242l.566-1.951c-3.614-.5-9.321-.373-10.377-1.636-1.082-1.3-1.033-2.931-.845-4.681q4.448-2.116,8.9-4.236c12.812-1.3,24.78-2.313,33.737-3.183,2.676.265,5.142.507,7.462.74a19.365,19.365,0,0,0-1.606,2.242m7.269-.527a19.774,19.774,0,0,1-3.127.278q2.149-.657,4.294-1.316l3.31.328q-2.24.285-4.478.71" transform="translate(-2.821 0.001)" fill="#fff"/>
    <path id="Path_171" data-name="Path 171" d="M129.812,220.62l-2.277-1.092c1.766-2.684,3.532-5.363,5.838-8.863-1.97-.986-4.593-2.3-6.932-3.474-8.07,2.374-15.852,4.13-15.565,10.134.075,1.6-3.712,3.651-6.48,5.009-6.825,3.349-7.746,7.784-.945,10.831,1.471.662,5.586-.222,8.293-.742,2.868-.55,6.451-2.559,8.1-2.128,12.574,3.295,14.272,3.006,19.671-4.495,3.849-.46,7.445-.889,13.285-1.58-4.838-2.035-7.487-3.149-11.64-4.9l22.633-1.931c-11.47.293-23.925-5.147-33.978,3.23" transform="translate(-7.614 178.918)" fill="#fff"/>
    <path id="Path_172" data-name="Path 172" d="M31.1,190.25c-.843.35-1.271,1.36-1.892,2.063.9.5,1.835,1.457,2.7,1.416,4.573-.239,9.131-.727,14.57-1.206-6.562-5.046-8.116-5.3-15.382-2.273" transform="translate(-2.251 162.592)" fill="#fff"/>
    <path id="Path_173" data-name="Path 173" d="M35.874,158.449c.174-1.877.945-3.721,1.18-5.6.1-.818-.487-1.69-.763-2.536-.081.032-.175.062-.261.089a51.818,51.818,0,0,1-2.4,10c.772.863,1.719,1.843,2.871,2.993-.292-2.093-.757-3.541-.629-4.953" transform="translate(-2.592 129.805)" fill="#fff"/>
    <path id="Path_174" data-name="Path 174" d="M143.914,182.839c.847-.062,1.616-.926,2.419-1.424-.774-.637-1.484-1.763-2.334-1.826-4.268-.315-8.57-.354-14.869-.55,5.263,4.4,10.047,4.152,14.784,3.8" transform="translate(-9.952 154.607)" fill="#fff"/>
    <path id="Path_175" data-name="Path 175" d="M51.046,188.835c1.442,2.1,2.884,4.186,4.645,6.74,2.219-1.4,3.723-2.35,5.227-3.3-1.787-1.413-3.362-3.107-5.448-4.122-.958-.458-2.918.419-4.424.682" transform="translate(-3.934 162.365)" fill="#fff"/>
    <path id="Path_176" data-name="Path 176" d="M87.718,188.631a57.569,57.569,0,0,0-5.071,3.511c1.017.281,2.331,1.029,3,.753,1.879-.786,3.493-2,6.558-3.856-2.722-.281-3.924-.719-4.485-.408" transform="translate(-6.37 162.798)" fill="#fff"/>
    <path id="Path_177" data-name="Path 177" d="M94.059,167.556c.449,2.288.9,4.573,1.395,6.852a7.423,7.423,0,0,0,1.064-.136c.051-2.3.038-4.6.032-6.9Z" transform="translate(-7.249 144.533)" fill="#fff"/>
    <path id="Path_178" data-name="Path 178" d="M57.258,155.459c-.186-.816-1.079-1.524-1.989-2.65-1.323,1.284-1.936,1.877-2.55,2.473.808.52,1.563,1.36,2.452,1.455.649.075,2.164-.937,2.087-1.278" transform="translate(-4.063 131.957)" fill="#fff"/>
    <path id="Path_179" data-name="Path 179" d="M54.169,180.9a9.611,9.611,0,0,0-1.123-2.59,3.97,3.97,0,0,0-1.286.19c.111-.08.132-.328.19-.505l-.728.669c.057-.009.114-.022.172-.032-.106.048-.194.1-.207.151-.3,1.07-.658,2.339-.188,3.261.268.518,2.06.522,3.18.753a7.088,7.088,0,0,0-.01-1.9" transform="translate(-3.913 153.707)" fill="#fff"/>
    <path id="Path_180" data-name="Path 180" d="M131.07,189.86a18.191,18.191,0,0,0-3.2.481c.449.7.734,1.834,1.385,1.987.767.181,1.85-.485,2.827-.8-.437-.76-.713-1.67-1.01-1.67" transform="translate(-9.855 163.952)" fill="#fff"/>
    <path id="Path_181" data-name="Path 181" d="M19.03,180.333a10.972,10.972,0,0,0-2.577,1.258c.617.544,1.231,1.088,2.246,1.987a9.474,9.474,0,0,0,1.814-2.19c.088-.242-1.1-1.142-1.484-1.055" transform="translate(-1.268 155.719)" fill="#fff"/>
    <path id="Path_182" data-name="Path 182" d="M45.153,168.308l-1.425-1.075c-.547.311-1.462.57-1.542.943-.1.462.484,1.023.771,1.537Z" transform="translate(-3.25 144.412)" fill="#fff"/>
    <path id="Path_183" data-name="Path 183" d="M10.79,115.744c.507.688.862,1.782,1.565,1.947.74.177,1.814-.533,3.645-1.161a14.425,14.425,0,0,0-3.162-1.411c-.609-.093-1.36.4-2.048.624" transform="translate(-0.832 99.4)" fill="#fff"/>
    <path id="Path_184" data-name="Path 184" d="M1.086,115.819c-.539.289-.741.991-1.086,1.519.665.142,1.517.548,1.949.347.509-.233.655-.993.957-1.526-.622-.134-1.461-.533-1.82-.339" transform="translate(0 99.969)" fill="#fff"/>
    <path id="Path_185" data-name="Path 185" d="M140.1,157.334c-.636.291-1.485.481-1.83.922-.228.293.268.949.444,1.446.65-.261,1.58-.4,1.856-.809.235-.354-.284-1.031-.47-1.56" transform="translate(-10.652 135.864)" fill="#fff"/>
    <path id="Path_186" data-name="Path 186" d="M60.3,150.325l-.867-.294c-.267.14-.662.246-.755.436-.066.144.263.408.418.617Z" transform="translate(-4.522 129.558)" fill="#fff"/>
    <path id="Path_187" data-name="Path 187" d="M201.779,152.172l.924.266.835-.488c-.234-.2-.628-.591-.673-.563a9.115,9.115,0,0,0-1.086.785" transform="translate(-15.551 130.728)" fill="#fff"/>
    <path id="Path_188" data-name="Path 188" d="M86.534,181.7l-.266-1.062-.906.281c.059.216.034.539.2.626a3,3,0,0,0,.971.155" transform="translate(-6.579 155.992)" fill="#fff"/>
    <path id="Path_189" data-name="Path 189" d="M54.522,180.644l-.033-.067-.024,0v.022Z" transform="translate(-4.198 155.932)" fill="#fff"/>
    <path id="Path_190" data-name="Path 190" d="M54.9,181.224c.125.121.424.123.643.173l-1.015-.786a2.087,2.087,0,0,0,.372.613" transform="translate(-4.202 155.965)" fill="#fff"/>
    <path id="Path_191" data-name="Path 191" d="M270.678,259.8a9.852,9.852,0,0,0-1.315,2.749c.8.127,1.695.688,2.408.3,3.73-2.132,7.351-4.664,11.724-7.48-5.99-2.046-7.227-1.513-12.817,4.433" transform="translate(-20.76 219.586)" fill="#fff"/>
    <path id="Path_192" data-name="Path 192" d="M286.672,253.364c1.445,1.388,2.887,2.779,4.65,4.474,1.622-2.32,2.722-3.895,3.822-5.466-1.64-.583-3.143-1.53-4.967-1.6-.837-.026-2.315,1.672-3.5,2.59" transform="translate(-22.094 216.553)" fill="#fff"/>
    <path id="Path_193" data-name="Path 193" d="M316.262,244.77c-1.313,1.823-2.4,3.8-3.574,5.717.852-.2,2.008-.089,2.5-.665,1.4-1.625,2.521-3.535,4.713-6.737-2.215.988-3.238,1.126-3.644,1.685" transform="translate(-24.099 209.914)" fill="#fff"/>
    <path id="Path_194" data-name="Path 194" d="M286.88,243.768a6.783,6.783,0,0,0-1.238-2.016c-.055-.065-1.409.965-1.438,1.258-.105,1.168-.228,2.547.269,3.231.282.388,1.729-.386,2.662-.65a7.729,7.729,0,0,0-.255-1.823" transform="translate(-21.896 208.759)" fill="#fff"/>
    <path id="Path_195" data-name="Path 195" d="M258.588,250.874a14.445,14.445,0,0,0-1.965,2.233c.568.289,1.136.576,2.07,1.049a14.039,14.039,0,0,0,1.23-2.842c.046-.265-1.031-.675-1.335-.44" transform="translate(-19.778 216.58)" fill="#fff"/>
    <path id="Path_196" data-name="Path 196" d="M276.62,233.613l-1.271-.43c-.4.533-1.095,1.18-1.113,1.575-.022.492.512.781.809,1.154Z" transform="translate(-21.135 201.363)" fill="#fff"/>
    <path id="Path_197" data-name="Path 197" d="M313.219,237.671l-.361-.9-.682.686c.077.181.1.5.247.511a2.375,2.375,0,0,0,.8-.3" transform="translate(-24.059 204.463)" fill="#fff"/>
    <path id="Path_198" data-name="Path 198" d="M287.442,243.862l-.034-.056-.02.007,0,.028Z" transform="translate(-22.149 210.536)" fill="#fff"/>
    <path id="Path_199" data-name="Path 199" d="M288.37,244.156l-.924-.32a1.367,1.367,0,0,0,.379.434c.119.06.358-.071.544-.114" transform="translate(-22.153 210.562)" fill="#fff"/>
    <path id="Path_200" data-name="Path 200" d="M173.08,103.011a7.941,7.941,0,0,0-1.918-1.388,5.507,5.507,0,0,0-2.074.091,11.981,11.981,0,0,0,2.3,1.809c.44.205,1.122-.319,1.691-.512" transform="translate(-13.032 87.683)" fill="#fff"/>
    <path id="Path_201" data-name="Path 201" d="M193.049,108.588c-.695-.634-1.384-1.265-2.012-1.839-.714.274-1.179.453-1.646.634a7.684,7.684,0,0,0,1.769,1.278,5.06,5.06,0,0,0,1.889-.073" transform="translate(-14.596 92.182)" fill="#fff"/>
    <path id="Path_202" data-name="Path 202" d="M92.37,90.656c-.043.011-.088.026-.129.039q-1.344.8-2.68,1.591c.9-.516,1.813-1.038,2.722-1.556Z" transform="translate(-6.902 78.285)" fill="#fff"/>
    <path id="Path_203" data-name="Path 203" d="M93.593,90.208l-.987.835a2.877,2.877,0,0,0,.754-.285c.155-.106.162-.363.233-.55" transform="translate(-7.137 77.898)" fill="#fff"/>
    <path id="Path_204" data-name="Path 204" d="M115.639,65.115c-5.951-1.327-9.383-1.073-11.622,1.679-.576.706-.424,1.795-.607,2.7a17.48,17.48,0,0,0,3.45-.563c2.451-.943,4.777-2.08,8.779-3.82" transform="translate(-7.97 55.558)" fill="#fff"/>
    <path id="Path_205" data-name="Path 205" d="M123.066,63.286a1.934,1.934,0,0,0,.642.261c-.323-.274-.648-.555-.97-.835a2.011,2.011,0,0,0,.328.574" transform="translate(-9.459 54.154)" fill="#fff"/>
    <path id="Path_206" data-name="Path 206" d="M122.517,63.831c-.023-.05-.046-.1-.073-.153l-2.514-2.262-.06.043,2.515,2.262.132.11" transform="translate(-9.238 53.035)" fill="#fff"/>
    <path id="Path_207" data-name="Path 207" d="M687.091,238.678l-2.648-1.291c-1.767-.829-3.537-1.588-5.315-2.242-7.28-2.672-14.637-3.66-23.349-5.717,7.978,6.019,16.294,4.642,22.98,12.32,1.6.291,3.271.593,4.995.9s3.505.613,5.3,1.088c3.6.859,7.337,1.755,11.069,2.65-3.465-1.977-6.93-4.148-10.412-6.2-.871-.511-1.741-1.036-2.616-1.506" transform="translate(-50.541 198.119)" fill="#fff"/>
    <path id="Path_208" data-name="Path 208" d="M613.341,229.249c-1.626-.485-3.264-.874-4.9-1.316l-.022,2.719c1.629.412,3.271.76,4.892,1.228l4.858,1.424,9.72,2.853.033-2.337-9.724-3.045Z" transform="translate(-46.891 196.829)" fill="#fff"/>
    <path id="Path_209" data-name="Path 209" d="M747.341,181.21c.125.212.2.527.38.6.211.089.513-.03.777-.06l-.507-.921Z" transform="translate(-57.597 156.152)" fill="#fff"/>
    <path id="Path_210" data-name="Path 210" d="M770.475,188.565l-.781-.259-.712.494c.2.2.53.6.576.568a7.155,7.155,0,0,0,.917-.8" transform="translate(-59.265 162.61)" fill="#fff"/>
    <path id="Path_211" data-name="Path 211" d="M906.3,182.061c.18-.4.329-.854.485-1.3a7.009,7.009,0,0,0-.428.676,1.756,1.756,0,0,0-.057.621" transform="translate(-69.848 156.097)" fill="#fff"/>
    <path id="Path_212" data-name="Path 212" d="M903.7,205.96c-1.143.807-2.381,1.3-3.329,2.074-.576.481-1.145.96-1.735,1.452-.578.462-1.175.937-1.817,1.446-1.3,1.077-2.737,2.147-4.58,3.451,5.674.088,9.229-1.739,11.155-5.479.5-.984.225-1.962.306-2.944" transform="translate(-68.765 177.855)" fill="#fff"/>
    <path id="Path_213" data-name="Path 213" d="M886.8,213.165c.024.047.047.1.075.145.781.624,1.611,1.174,2.442,1.741l.054-.052c-.825-.572-1.663-1.116-2.444-1.742Z" transform="translate(-68.346 184.076)" fill="#fff"/>
    <path id="Path_214" data-name="Path 214" d="M885.812,212.807l.915.667a1.656,1.656,0,0,0-.32-.511c-.12-.114-.393-.108-.594-.157" transform="translate(-68.269 183.767)" fill="#fff"/>
    <path id="Path_215" data-name="Path 215" d="M781.412,177l-.018.1.042-.065.015-.015L781.41,177Z" transform="translate(-60.222 152.847)" fill="#fff"/>
    <path id="Path_216" data-name="Path 216" d="M807.285,170.108l.533-.212c-.029-.224,0-.542-.1-.643-.142-.155-.365-.162-.554-.231Z" transform="translate(-62.208 145.957)" fill="#fff"/>
    <path id="Path_217" data-name="Path 217" d="M760.185,176.353l.127,1.038.511-.222c-.029-.211-.011-.524-.1-.617-.138-.144-.352-.138-.535-.2" transform="translate(-58.587 152.288)" fill="#fff"/>
    <path id="Path_218" data-name="Path 218" d="M780.883,179.416l.418-2.361-1.12,1.657Z" transform="translate(-60.128 152.894)" fill="#fff"/>
    <path id="Path_219" data-name="Path 219" d="M944.125,189.313a.53.53,0,0,0,.072-.03l1.512-1.433-1.535,1.394Z" transform="translate(-72.763 162.216)" fill="#fff"/>
    <path id="Path_220" data-name="Path 220" d="M943.519,189.416l.558-.781a1.145,1.145,0,0,0-.424.244c-.089.1-.093.35-.135.537" transform="translate(-72.717 162.894)" fill="#fff"/>
    <path id="Path_221" data-name="Path 221" d="M929.737,216.327c3.449,1.291,5.461,1.031,6.8-1.729a9.962,9.962,0,0,0,.384-2.706,6.365,6.365,0,0,0-2.011.578c-1.438.954-2.806,2.091-5.168,3.858" transform="translate(-71.655 182.977)" fill="#fff"/>
    <path id="Path_222" data-name="Path 222" d="M925.57,215.977l.534.82a2.549,2.549,0,0,0-.175-.567c-.069-.132-.238-.171-.359-.253" transform="translate(-71.333 186.505)" fill="#fff"/>
    <path id="Path_223" data-name="Path 223" d="M926.149,216.417c.013.05.024.106.039.155l1.386,2.223.036-.041-1.388-2.225Z" transform="translate(-71.378 186.885)" fill="#fff"/>
    <path id="Path_224" data-name="Path 224" d="M118.177,187.921l-5.547.449c-.68.058-1.177,1.6-1.758,2.452.734.4,1.5,1.161,2.2,1.146a61.793,61.793,0,0,0,10.48-.855c3.928-.691,7.778-1.817,11.651-2.758l-.379-2.087-11.1,1.077Z" transform="translate(-8.545 160.85)" fill="#fff"/>
    <path id="Path_225" data-name="Path 225" d="M152.6,183.341c.57.443,1.138.891,1.758,1.379.8-.291,1.5-.542,2.2-.794-.6-.386-1.191-1.019-1.81-1.1a6.094,6.094,0,0,0-2.146.513" transform="translate(-11.761 157.869)" fill="#fff"/>
    <path id="Path_226" data-name="Path 226" d="M288.74,189.715c-.044-.048-.09-.1-.137-.145s-.063-.065-.093-.1c.016.052.033.1.052.153Z" transform="translate(-22.235 163.614)" fill="#fff"/>
    <path id="Path_227" data-name="Path 227" d="M292.472,191.564l-3.713-1.964,3.065,3.248Z" transform="translate(-22.255 163.727)" fill="#fff"/>
    <path id="Path_228" data-name="Path 228" d="M106.562,189.749c-.449-.354-.881-.913-1.347-1s-.955.306-1.433.494A6.638,6.638,0,0,0,105.4,190.6c.308.114.772-.537,1.163-.846" transform="translate(-7.998 162.98)" fill="#fff"/>
    <path id="Path_229" data-name="Path 229" d="M119.3,193.633c.426.043.868-.35,1.3-.55-.495-.453-.988-.906-1.439-1.316l-1.118,1.04c.417.293.829.777,1.257.826" transform="translate(-9.098 165.599)" fill="#fff"/>
    <path id="Path_230" data-name="Path 230" d="M147.22,198.623l-.808.853c.233.11.461.22.689.334l.635-.5Z" transform="translate(-11.284 171.519)" fill="#fff"/>
    <path id="Path_231" data-name="Path 231" d="M49.062,179.51c.653-.365,1.31-.729,1.965-1.1l.063-.058c-.029.007-.06.011-.089.019q-.972.567-1.939,1.137" transform="translate(-3.781 154.017)" fill="#fff"/>
    <path id="Path_232" data-name="Path 232" d="M165.749,182.3a6.116,6.116,0,0,0-.757.755l.633.3.584-.464c-.161-.211-.426-.621-.461-.591" transform="translate(-12.716 157.423)" fill="#fff"/>
    <path id="Path_233" data-name="Path 233" d="M161.835,185.131l.054-.024.014,0-.03-.017Z" transform="translate(-12.473 159.831)" fill="#fff"/>
    <path id="Path_234" data-name="Path 234" d="M161.105,185.884l.674-.773a1.7,1.7,0,0,0-.516.272c-.1.1-.106.328-.158.5" transform="translate(-12.416 159.851)" fill="#fff"/>
    <path id="Path_235" data-name="Path 235" d="M217.221,174.249l.066.075c-.013-.035-.026-.069-.038-.106Z" transform="translate(-16.741 150.443)" fill="#fff"/>
    <path id="Path_236" data-name="Path 236" d="M217.534,174.842c.082.119.276.123.419.181l-.66-.749a2.218,2.218,0,0,0,.241.568" transform="translate(-16.747 150.492)" fill="#fff"/>
    <path id="Path_237" data-name="Path 237" d="M61.623,155.29a8.582,8.582,0,0,0-.526,2.629,7.106,7.106,0,0,0,2.221-.246c1.6-.721,3.13-1.636,5.721-3.032-3.7-1.83-5.859-1.893-7.416.648" transform="translate(-4.709 132.397)" fill="#fff"/>
    <path id="Path_238" data-name="Path 238" d="M73.884,152.668c.077.138.261.19.4.28l-.583-.855a2.562,2.562,0,0,0,.186.576" transform="translate(-5.68 131.337)" fill="#fff"/>
    <path id="Path_239" data-name="Path 239" d="M72.021,150.755l-.041.039,1.5,2.329.082.123c-.013-.056-.025-.112-.041-.164Z" transform="translate(-5.547 130.183)" fill="#fff"/>
    <path id="Path_240" data-name="Path 240" d="M221.9,159.864q-8.039,2.259-16.039,4.5c-.922.266-1.832.524-2.75.783a9.326,9.326,0,0,0,2.86,1.042c1.418.1,3.045-.322,6.316-.742,1.274-.391,2.959-.909,4.841-1.491,1.863-.611,3.921-1.308,5.958-2.048.855-.311,1.419-1.327,2.117-2.013a11.834,11.834,0,0,0-3.3-.032" transform="translate(-15.653 137.942)" fill="#fff"/>
    <path id="Path_241" data-name="Path 241" d="M185.023,155.026c1.277.7,6.239-1.437,7.315-3.246.134-.222-1.985-.77-2.329-1.444-.949-1.873-2.1-1.709-3.251-1.195s-2.327,1.427-3.388,1.224l.021,1.045c2.576.55,3.426,1.662,1.632,3.615" transform="translate(-14.132 128.493)" fill="#fff"/>
    <path id="Path_242" data-name="Path 242" d="M201.1,153.6l.064,0,.076-.045-.116.017Z" transform="translate(-15.499 132.598)" fill="#fff"/>
    <path id="Path_243" data-name="Path 243" d="M227.546,214.754a18.657,18.657,0,0,0,3.335-1.427c-1.436-.386-2.218-.881-3.008-.758l-14.029,2.27c-.394.071-.764.71-1.146,1.085a7.764,7.764,0,0,0,1.922.285l6.407-.619q3.257-.414,6.519-.835" transform="translate(-16.393 183.544)" fill="#fff"/>
    <path id="Path_244" data-name="Path 244" d="M214.019,167.543c3.98-1.208,7.87-2.585,11.8-3.88-4.41-.6-8.476-.13-11.8,3.88" transform="translate(-16.494 141.145)" fill="#fff"/>
    <path id="Path_245" data-name="Path 245" d="M138.335,188.8c3.9,1.709,6.936,1.222,9.4-.645q-4.841.048-9.691.089c.094.19.135.488.29.555" transform="translate(-10.639 162.483)" fill="#fff"/>
    <path id="Path_246" data-name="Path 246" d="M158.169,188.922c.734-.1,1.493-.294,2.317-.445-.675-.557-1.057-1.072-1.315-1.055-1.443.091-2.865.076-4.3.142.379.52.885,1.48,1.12,1.485.728,0,1.44-.054,2.176-.127" transform="translate(-11.936 161.846)" fill="#fff"/>
    <path id="Path_247" data-name="Path 247" d="M286.062,208.121a37.211,37.211,0,0,0,4.438-2.154c-2.709-.058-3.871-.391-4.723-.017-.891.4-1.5,1.416-2.233,2.175a8.089,8.089,0,0,0,2.518,0" transform="translate(-21.853 177.695)" fill="#fff"/>
    <path id="Path_248" data-name="Path 248" d="M307.045,199.753c.069,1.025-.241,2.272.348,3,.377.458,2.014.185,3.122.216-.428-.464-.824-.947-1.3-1.377-.7-.634-1.445-1.228-2.171-1.836" transform="translate(-23.662 172.495)" fill="#fff"/>
    <path id="Path_249" data-name="Path 249" d="M310.806,201.477l.036.041c.007,0,.01-.009.018-.011l.018-.026Z" transform="translate(-23.954 173.983)" fill="#fff"/>
    <path id="Path_250" data-name="Path 250" d="M172.1,187.859c-.671-.54-1.183-.952-1.695-1.366-.593.4-1.543.781-1.683,1.224-.121.421.662.967,1.047,1.442.689-.382,1.381-.768,2.331-1.3" transform="translate(-13.003 161.044)" fill="#fff"/>
    <path id="Path_251" data-name="Path 251" d="M194.984,154.73c.173.267.42.786.52.766,1.538-.354,3.12-.872,4.667-1.385.2-.065.313-.339.458-.533a7.315,7.315,0,0,0-.788.1c-1.637.376-3.268.751-4.856,1.053" transform="translate(-15.027 132.621)" fill="#fff"/>
    <path id="Path_252" data-name="Path 252" d="M707.49,60.149a9.124,9.124,0,0,0-2.277.736,16.706,16.706,0,0,0-2.2,1.953c.727-.17,1.455-.337,2.246-.527.808-.779,1.523-1.47,2.235-2.162" transform="translate(-54.181 51.941)" fill="#fff"/>
    <path id="Path_253" data-name="Path 253" d="M267.739,208.058l5.754,1.273c-.212-2.743-3.069-1.886-5.754-1.273" transform="translate(-20.635 179.124)" fill="#fff"/>
    <path id="Path_254" data-name="Path 254" d="M293.336,232.36a9.957,9.957,0,0,0,2.436-.009,23.308,23.308,0,0,0,3.33-1.459,17.657,17.657,0,0,0-3.268.248,15.394,15.394,0,0,0-2.5,1.221" transform="translate(-22.607 199.384)" fill="#fff"/>
    <path id="Path_255" data-name="Path 255" d="M201.18,167.958l.951,1.852,1.434-2.725Z" transform="translate(-15.505 144.285)" fill="#fff"/>
    <path id="Path_256" data-name="Path 256" d="M205.719,148.415l-1.09-.589c-.411.278-1.09.546-1.162.827-.082.324.374.654.594.988.556-.406,1.106-.82,1.658-1.226" transform="translate(-15.68 127.654)" fill="#fff"/>
    <path id="Path_257" data-name="Path 257" d="M473.828,67.388a7.546,7.546,0,0,0-2.265.57,8.683,8.683,0,0,0-1.683,1.754,16.293,16.293,0,0,0,2.4-.928,9.144,9.144,0,0,0,1.551-1.4" transform="translate(-36.214 58.192)" fill="#fff"/>
    <path id="Path_258" data-name="Path 258" d="M710.477,54.905a9.111,9.111,0,0,0,1.324-1.252c-.535.039-1.074.082-1.557.116-.507.65-.85,1.088-1.192,1.526a4.864,4.864,0,0,0,1.424-.389" transform="translate(-54.646 46.331)" fill="#fff"/>
    <path id="Path_259" data-name="Path 259" d="M175.686,185.836a4.72,4.72,0,0,0,1.537-.591c.191-.185-.2-.665-.331-1.019-.542.155-1.308.216-1.547.5-.2.238.2.732.341,1.114" transform="translate(-13.509 159.086)" fill="#fff"/>
    <path id="Path_260" data-name="Path 260" d="M195.066,212.312a4.458,4.458,0,0,0-1.485-.473c-.162.373-.591.876-.4,1.081.228.259.974.266,1.5.386.152-.343.567-.829.39-.993" transform="translate(-14.885 182.931)" fill="#fff"/>
    <path id="Path_261" data-name="Path 261" d="M313.915,222.846l.011-.106-.055.052Z" transform="translate(-24.19 192.345)" fill="#fff"/>
    <path id="Path_262" data-name="Path 262" d="M315.159,224.366,313.9,222.8l-.271,2.234c.512-.227,1.023-.445,1.534-.665" transform="translate(-24.171 192.394)" fill="#fff"/>
    <path id="Path_263" data-name="Path 263" d="M253.633,209.69c-.85.015-1.707-.03-2.559-.047l-.113-.048.065.088c.871,0,1.74.039,2.607.007" transform="translate(-19.341 180.994)" fill="#fff"/>
    <path id="Path_264" data-name="Path 264" d="M715.892,62.046a4.333,4.333,0,0,0,.7-.572c.1-.123.013-.307.01-.466l-.724.263Z" transform="translate(-55.172 52.683)" fill="#fff"/>
    <path id="Path_265" data-name="Path 265" d="M219.7,216.287l.986-.714-.743-.1c-.221.138-.555.265-.629.423-.052.106.247.259.387.391" transform="translate(-16.902 186.069)" fill="#fff"/>
    <path id="Path_266" data-name="Path 266" d="M196.282,166.25a7.877,7.877,0,0,0-.888.7c.264.037.526.071.792.108l.688-.451a3.241,3.241,0,0,0-.592-.362" transform="translate(-15.059 143.562)" fill="#fff"/>
    <path id="Path_267" data-name="Path 267" d="M230.183,180.2l-.671-.084c-.2.132-.5.248-.566.391-.049.1.208.239.329.358.3-.222.6-.444.908-.665" transform="translate(-17.644 155.539)" fill="#fff"/>
    <path id="Path_268" data-name="Path 268" d="M695.643,62.856l-.066-.062a.467.467,0,0,0-.044.03l.01.022Z" transform="translate(-53.604 54.225)" fill="#fff"/>
    <path id="Path_269" data-name="Path 269" d="M696.422,62.863l-.77-.037a.558.558,0,0,0,.293.2c.1.024.317-.1.477-.164" transform="translate(-53.614 54.253)" fill="#fff"/>
    <path id="Path_270" data-name="Path 270" d="M250.617,209.439c-.1-.061-.335-.022-.507-.035l.785.358a.958.958,0,0,0-.279-.322" transform="translate(-19.276 180.828)" fill="#fff"/>
    <path id="Path_271" data-name="Path 271" d="M334.912,263.92c-1.563,2.309-3.259,5.406-4.624,3.343-1.341,2.406-2.612,4.968-3.98,7.294-.53.919-1.3,1.23-1.851,2.156-1,1.653-1.954,3.475-2.889,5.3a7.4,7.4,0,0,0-.32,1.571c.392-.138.847,0,1.168-.46,3.2-4.7,6.487-9.189,9.765-13.727,1.97-2.665,4.016-7.245,5.774-8.1,2.558-1.3,3.739-4.368,6.05-8.8a39.672,39.672,0,0,0-4.64,4.65c-1.527,2.05-2.969,4.56-4.451,6.774" transform="translate(-24.758 218.04)" fill="#fff"/>
    <path id="Path_272" data-name="Path 272" d="M375.228,265.843c-2.021,2.657-4.035,5.3-5.954,8.168a27.145,27.145,0,0,0-1.666,3.954,10.076,10.076,0,0,0,2.407-1.739c1.272-1.5,2.475-3.446,3.757-4.957a61.186,61.186,0,0,1,4.453-4.487c-.461-1.964-1.129-3.334-3-.939" transform="translate(-28.331 228.466)" fill="#fff"/>
    <path id="Path_273" data-name="Path 273" d="M379.112,265.769l.01.032.03-.041-.015-.017Z" transform="translate(-29.218 229.48)" fill="#fff"/>
    <path id="Path_274" data-name="Path 274" d="M375.586,269.405a15.062,15.062,0,0,1,3.148-4.56,7.506,7.506,0,0,1,3.5-1.808,6.757,6.757,0,0,0,3.182-2.583A45.056,45.056,0,0,0,388.4,255c-1.07.835-2.134,1.659-3.205,2.488-1.922,1.517-3.785,3.319-5.7,4.67-1.985,1.424-3.261,3.71-3.912,7.245" transform="translate(-28.946 220.204)" fill="#fff"/>
    <path id="Path_275" data-name="Path 275" d="M372.586,261.953c.006-.13-.457-.184-.653.028-1.932,2.182-3.87,4.368-5.244,5.928-1.234,1.744-1.99,2.657-2.635,3.766a21.537,21.537,0,0,0-1.074,2.7c.552-.112,1.218.147,1.628-.4q3.831-5.289,7.669-10.576a3.466,3.466,0,0,0,.31-1.442" transform="translate(-27.975 226.108)" fill="#fff"/>
    <path id="Path_276" data-name="Path 276" d="M327.777,252c1.727-2.78,3.486-5.47,5.232-8.213-2.232,1.5-4.259,3.6-5.245,8.213-2.282,3.291-4.55,7.186-6.866,6.371-1.133-.412-1.85,1.877-2.029,3.651a42,42,0,0,0-.009,5.02c2.02-2.928,3.773-5.553,5.565-8.1,1.369-1.966,2.975-3.733,3.351-6.944" transform="translate(-24.568 210.522)" fill="#fff"/>
    <path id="Path_277" data-name="Path 277" d="M372.6,264.285c-.372.1-.817-.063-1.108.317-1.85,2.384-3.68,4.868-5.445,7.419l.131,1.293c1.947-2.344,3.966-4.527,5.942-6.869a8.246,8.246,0,0,0,.48-2.16" transform="translate(-28.211 228.221)" fill="#fff"/>
    <path id="Path_278" data-name="Path 278" d="M393.327,251.7c.332-.993.65-1.946.968-2.89-.5.078-1.005-.063-1.5.291a18.134,18.134,0,0,0-2.364,2.231c-.955.986-1.87,2.1-2.794,3.179,1.033-.386,2.055-.675,3.117-1.152a23.084,23.084,0,0,0,2.569-1.659" transform="translate(-29.875 214.857)" fill="#fff"/>
    <path id="Path_279" data-name="Path 279" d="M369.781,266.014c1.009-1.379,2.086-2.615,3.253-4.105a42.174,42.174,0,0,0,3.73-5.743c-3.3,3.328-5.629,5.6-7.86,8.015a12.479,12.479,0,0,0,.876,1.834" transform="translate(-28.431 221.209)" fill="#fff"/>
    <path id="Path_280" data-name="Path 280" d="M368.9,260.481l-.013-.032h0l-.015.063Z" transform="translate(-28.429 224.908)" fill="#fff"/>
    <path id="Path_281" data-name="Path 281" d="M340.112,254.078c2.485-2.622,3.983-4.2,5.481-5.775-1.726-.988-3.174,1.517-5.481,5.775" transform="translate(-26.212 214.234)" fill="#fff"/>
    <path id="Path_282" data-name="Path 282" d="M393.423,230.416l-.8,4.677c.778-1.433,1.551-2.892,2.345-4.3Z" transform="translate(-30.26 198.973)" fill="#fff"/>
    <path id="Path_283" data-name="Path 283" d="M392.556,232.926l-.008.017-.844,2.124.85-2.124Z" transform="translate(-30.188 201.14)" fill="#fff"/>
    <path id="Path_284" data-name="Path 284" d="M323.1,264.157a16.263,16.263,0,0,0-.982,2.62,6.8,6.8,0,0,0,1.5-1.146,7.76,7.76,0,0,0,.432-1.644c-.321.032-.688-.2-.951.17" transform="translate(-24.826 227.928)" fill="#fff"/>
    <path id="Path_285" data-name="Path 285" d="M312.083,262.956c.452-.527.9-1.057,1.42-1.67.237-.867.456-1.664.674-2.456a11.58,11.58,0,0,0-1.319,1.785,17.326,17.326,0,0,0-.775,2.341" transform="translate(-24.052 223.51)" fill="#fff"/>
    <path id="Path_286" data-name="Path 286" d="M354.26,263.755a5,5,0,0,0,1.26-1.047,16.745,16.745,0,0,0,.974-2.087c-.428.255-.846.535-1.3.84-.337.831-.639,1.56-.938,2.294" transform="translate(-27.303 225.057)" fill="#fff"/>
    <path id="Path_287" data-name="Path 287" d="M396.816,247.534c2.168-.829,3.312-1.793,3.731-4.413-1.028,1.221-2.058,2.436-3.731,4.413" transform="translate(-30.582 209.945)" fill="#fff"/>
    <path id="Path_288" data-name="Path 288" d="M498.062,243.955a4.373,4.373,0,0,0,1.395-.9,8.894,8.894,0,0,0,.851-1.938,10.728,10.728,0,0,0-1.43,1.267,8.894,8.894,0,0,0-.816,1.571" transform="translate(-38.385 208.214)" fill="#fff"/>
    <path id="Path_289" data-name="Path 289" d="M354.454,269.2c.323-.132.646-.259.938-.369.174-.656.289-1.09.408-1.528a2.515,2.515,0,0,0-.794.576,7.565,7.565,0,0,0-.552,1.321" transform="translate(-27.318 230.828)" fill="#fff"/>
    <path id="Path_290" data-name="Path 290" d="M336.326,256.8c-.214-.106-.424-.432-.648-.253a5.746,5.746,0,0,0-.617,1.327c.23.067.446.311.7.147a5.779,5.779,0,0,0,.569-1.221" transform="translate(-25.823 221.49)" fill="#fff"/>
    <path id="Path_291" data-name="Path 291" d="M320.649,250.687q.264-.872.545-1.713a2.99,2.99,0,0,0-.906.855,10.331,10.331,0,0,0-.563,1.7Z" transform="translate(-24.641 214.999)" fill="#fff"/>
    <path id="Path_292" data-name="Path 292" d="M385.016,250.639c-.116.037-.256.216-.387.334l.272.481.293-.55c-.057-.1-.1-.287-.178-.265" transform="translate(-29.643 216.435)" fill="#fff"/>
    <path id="Path_293" data-name="Path 293" d="M394.849,289.675c.118.009.329.075.342.037.1-.307.159-.635.229-.956l-.374.253Z" transform="translate(-30.431 249.352)" fill="#fff"/>
    <path id="Path_294" data-name="Path 294" d="M325.71,227.074l-.342.749c.072.084.127.285.218.227a2.858,2.858,0,0,0,.46-.529Z" transform="translate(-25.076 196.087)" fill="#fff"/>
    <path id="Path_295" data-name="Path 295" d="M367.839,248.247l-1.407,1.189,1.4-1.14.059-.058Z" transform="translate(-28.241 214.363)" fill="#fff"/>
    <path id="Path_296" data-name="Path 296" d="M369.229,247.6l-1.219,1.189,1.129-.253Z" transform="translate(-28.362 213.812)" fill="#fff"/>
    <path id="Path_297" data-name="Path 297" d="M348.3,262.444c-.036.127.057.27.1.406l.389-.38-.175-.671a3.667,3.667,0,0,0-.309.645" transform="translate(-26.843 226.074)" fill="#fff"/>
    <path id="Path_298" data-name="Path 298" d="M388.741,235.9l-.281-.52-.326.583c.058.1.1.306.186.28.125-.034.277-.222.421-.343" transform="translate(-29.913 203.262)" fill="#fff"/>
    <path id="Path_299" data-name="Path 299" d="M382.154,276.672l.016-.106h-.018l-.01,0Z" transform="translate(-29.451 238.826)" fill="#fff"/>
    <path id="Path_300" data-name="Path 300" d="M382.358,278.244l-.228-1.621-.3,1.854Z" transform="translate(-29.428 238.875)" fill="#fff"/>
    <path id="Path_301" data-name="Path 301" d="M380.029,261.288l.3.492.294-.587c-.061-.1-.111-.291-.193-.263-.121.035-.264.231-.4.358" transform="translate(-29.289 225.321)" fill="#fff"/>
    <path id="Path_302" data-name="Path 302" d="M279.727,206.684c.073-.309.234-.887.209-.883a3.3,3.3,0,0,0-.674.35l.013.684Z" transform="translate(-21.523 177.717)" fill="#fff"/>
    <path id="Path_303" data-name="Path 303" d="M385.216,288.881l.289-1.1.134-1.062-.278,1.057Z" transform="translate(-29.688 247.594)" fill="#fff"/>
    <path id="Path_304" data-name="Path 304" d="M381.5,279.55l.051.048.032-.058-.021.006Z" transform="translate(-29.402 241.394)" fill="#fff"/>
    <path id="Path_305" data-name="Path 305" d="M381.012,279.635l.448-.017a.438.438,0,0,0-.2-.157c-.062-.011-.16.11-.243.173" transform="translate(-29.364 241.325)" fill="#fff"/>
    <path id="Path_306" data-name="Path 306" d="M408.571,243.621l.507.043a.66.66,0,0,0-.218-.2c-.07-.021-.191.1-.289.153" transform="translate(-31.488 210.242)" fill="#fff"/>
    <path id="Path_307" data-name="Path 307" d="M409.121,243.572l.05.058.046-.047-.03-.006Z" transform="translate(-31.531 210.334)" fill="#fff"/>
    <path id="Path_308" data-name="Path 308" d="M360.792,258.973l.053.048.022-.032-.01-.021Z" transform="translate(-27.806 223.63)" fill="#fff"/>
    <path id="Path_309" data-name="Path 309" d="M360.261,259.12l.49-.089a.438.438,0,0,0-.226-.127c-.067-.006-.175.138-.264.216" transform="translate(-27.765 223.574)" fill="#fff"/>
    <path id="Path_310" data-name="Path 310" d="M446.492,227.723l.543.086a.633.633,0,0,0-.228-.244c-.072-.026-.207.1-.315.158" transform="translate(-34.411 196.508)" fill="#fff"/>
    <path id="Path_311" data-name="Path 311" d="M666.609,198.2l.121.853a20.992,20.992,0,0,0,3.3,1.118c.335.06.7-.766,1.056-1.187-.4-.408-.806-1.15-1.2-1.165a20.342,20.342,0,0,0-3.274.38" transform="translate(-51.375 170.819)" fill="#fff"/>
    <path id="Path_312" data-name="Path 312" d="M652.575,189.644c-.263-.2-.645.138-.973.231.2.255.387.609.609.736A4.961,4.961,0,0,0,653.3,191a4.408,4.408,0,0,0-.728-1.353" transform="translate(-50.219 163.713)" fill="#fff"/>
    <path id="Path_313" data-name="Path 313" d="M653.446,190.342l.02.041.039.013-.018-.041Z" transform="translate(-50.361 164.368)" fill="#fff"/>
    <path id="Path_314" data-name="Path 314" d="M303.65,190.475a2.27,2.27,0,0,0,.819-.593.53.53,0,0,0-.617-.28,11.1,11.1,0,0,0-1.659.909,7.033,7.033,0,0,0,1.458-.037" transform="translate(-23.29 163.711)" fill="#fff"/>
    <path id="Path_315" data-name="Path 315" d="M704.791,57.234a15.167,15.167,0,0,0,2.04.252c.132.007.455-.287.863-.55l-2.66-.239c-.088.184-.3.526-.243.537" transform="translate(-54.317 48.96)" fill="#fff"/>
    <path id="Path_316" data-name="Path 316" d="M701.947,63.688a5.88,5.88,0,0,0,1.15.641,4.769,4.769,0,0,0,.917-.548c-.41-.188-.822-.376-1.176-.54-.434.22-.662.335-.892.447" transform="translate(-54.099 54.611)" fill="#fff"/>
    <path id="Path_317" data-name="Path 317" d="M711.844,60.928c.359-.2.72-.4,1.059-.594-.073-.2-.121-.337-.173-.483a5.535,5.535,0,0,0-1.066.544c-.112.093.109.347.181.533" transform="translate(-54.845 51.684)" fill="#fff"/>
    <path id="Path_318" data-name="Path 318" d="M708.381,59.669l.1-.248-.223-.125a2.305,2.305,0,0,0-.233.233,2.045,2.045,0,0,0,.354.14" transform="translate(-54.567 51.204)" fill="#fff"/>
    <path id="Path_319" data-name="Path 319" d="M710.4,40.753a1.638,1.638,0,0,0-.382.121l.274.216.312-.2c-.065-.047-.112-.134-.2-.134" transform="translate(-54.721 35.192)" fill="#fff"/>
    <path id="Path_320" data-name="Path 320" d="M768.488,70.323a2.575,2.575,0,0,0,.26-.52l0,0c-.085.17-.17.343-.256.518" transform="translate(-59.227 60.278)" fill="#fff"/>
  </g>
</svg>
