<svg xmlns="http://www.w3.org/2000/svg" width="26" height="26" viewBox="0 0 26 26">
  <path id="bxs-basketball" d="M23.268,4.935a12.969,12.969,0,0,0-7.752-2.912,11.714,11.714,0,0,1-2.391,9.26l1.9,1.9,8.245-8.245ZM9.421,11.264,4.935,6.778a12.949,12.949,0,0,0-2.752,6.129,9.13,9.13,0,0,0,7.238-1.643ZM25.111,6.778l-8.245,8.245,1.9,1.9a11.718,11.718,0,0,1,9.26-2.391,12.969,12.969,0,0,0-2.912-7.752Zm2.752,10.361a9.13,9.13,0,0,0-7.238,1.643l4.486,4.486a12.931,12.931,0,0,0,2.752-6.129Zm-16.6-7.718a9.13,9.13,0,0,0,1.643-7.238A12.936,12.936,0,0,0,6.778,4.935Zm5.875,18.441a12.947,12.947,0,0,0,6.129-2.751l-4.486-4.486a9.125,9.125,0,0,0-1.643,7.237Zm-2.116-11L6.778,25.111a12.969,12.969,0,0,0,7.752,2.912,11.714,11.714,0,0,1,2.391-9.26Zm-10.088,6.4,8.245-8.245-1.9-1.9a11.718,11.718,0,0,1-9.26,2.391,12.969,12.969,0,0,0,2.912,7.752Z" transform="translate(-2.023 -2.023)" fill="#cba46d"/>
</svg>
