<svg xmlns="http://www.w3.org/2000/svg" width="275" height="128" viewBox="0 0 275.057 128" >
  <g id="Logo" transform="translate(-159.957 -427.117)">
    <g id="Group_2" data-name="Group 2">
      <path id="Path_1" data-name="Path 1" d="M287.84,504.624c.063-.514.511-2.62.612-3.163a15.228,15.228,0,0,1,.417-1.988,2.832,2.832,0,0,0,.359-1.741c-.24-1.723-.71-2.277-.988-3.981a23.015,23.015,0,0,0-1.6-5.335c-.8-1.557-1.994-1.769-3.355-2.589-1.63-.981-3.377-1.719-5.1-2.587-1.425-.718-2.886-1.13-4.309-1.776-1.342-.61-2.6-1.458-3.923-2.158-1.391-.737-3.852-2.432-4.659-3.807-.657-1.117-.793-2.931-1.143-4.2-.344-1.247-.449-2.445-.739-3.664-.253-1.063-.974-.938-1.523-.121a11.008,11.008,0,0,0-1.014,3.416c-.193.892-.793,2.453-1.762,2.9-1.185.549-2.625-.247-3.643-.632-1.2-.453-2.433-.6-3.594-.97-.431.929-.884.948-1.6,1.546s-1.022,1.538-1.735,2.141c-1.229,1.039-2.441.835-3.14,2.479-.465,1.094-.916,2.313-1.459,3.481C247.9,494.643,258.9,501,271.318,503.708a84.372,84.372,0,0,0,16.816,1.818A.978.978,0,0,1,287.84,504.624Z" fill="#cba46d"/>
      <path id="Path_2" data-name="Path 2" d="M283.838,481.6c-.555-1.2-.334-2.347-.52-3.436-.173-1.013-.093-2.53-.718-3.371-1.227-1.649-3.2-2.03-4.931-3.689l-.3-.006a21.78,21.78,0,0,1-2.293,1.061c-.808.438-1.412,1.226-2.367,1.3,1.735,1.569,3.537,2.935,5.322,4.446S282.091,480.141,283.838,481.6Z" fill="#cba46d"/>
      <path id="Path_3" data-name="Path 3" d="M308.307,428.952a94.118,94.118,0,0,0-36.989,0,48.29,48.29,0,0,0-13.4,4.95c-9.178,5.062-15.519,13.795-15.519,27.867v8.84a21.483,21.483,0,0,1,1.567-1.6c1-.986.988-2.514,1.189-3.807-.088-.048-.164-.06-.249-.1.428.2,2.767-4.13,2.878-4.625a26,26,0,0,1,1.046-2.643c.247-.776.495-1.982,1.415-2.156,4.74-10.171,12.976-12.983,14.134-13.406.643-.235,4.637-1.762,14.317-.388a.927.927,0,0,1,.693-1.069c.328-.017.442.509.6.68a6.486,6.486,0,0,1,1.705-3.955,4.939,4.939,0,0,1,4.05-1.627,4.014,4.014,0,0,1,3.915,2.079,8.7,8.7,0,0,1,.989,4.466c.005.975-.234,3.042-1.261,3.429l.2-.094c.759.081,1.154.761,1.851.935.739.183,1.67-.011,2.394.124a7.637,7.637,0,0,1,3.955,2.207,6.376,6.376,0,0,0,3.34,1.926c1.577.407,3.065,1.383,4.654,1.869,1.975.6,5.528.623,7.546,1.047,1.551.327,1.542.764,3.017,1.345,1.5.592,3.033,1.052,4.606,1.61,1.442.512,2.98.726,4.433,1.2,1.1.358,2.662.446,3.386,1.458a9.711,9.711,0,0,1,1.767,3.861c.184,1.568-.745,3.466-1.144,4.827a5.337,5.337,0,0,1-1.854,2.9c-.756.593-1.228,1.156-1.859.658a7.669,7.669,0,0,1-11.066-10.621c.018-.021.038-.042.057-.063.043-.044.086-.088.131-.131.106-.111.211-.225.326-.328a23.973,23.973,0,0,1-6.8-1.058,33.256,33.256,0,0,0-4.005-1c-1.541-.227-3.077-.438-4.632-.793a23.852,23.852,0,0,1-4.6-1.881c-.854-.389-1.931-1.512-2.8-1.665-.9-.158-1.76.676-2.487,1.079a7.046,7.046,0,0,1-3.475.509c.068,1.189-1.164,1.36-1.936,1.915a12.26,12.26,0,0,0-2.185,1.858c-1.852,2.147,2.338,2.743,1.643,4.453,1.776,1.727,4.5,3.02,5.323,5.547.474,1.45.451,2.945.79,4.464s.852,2.939,1.185,4.469c.2.931.9,4.923,1.02,5.526a5.215,5.215,0,0,1,2.4.4c1.17.88-.391,1.236-.9,1.563-.4.26-.583.289-.732.754-.057.179.151.363.088.592-.049.174-.281.561-.29.611-.286,1.538.152,5.476.686,8.992.027.709,1.268-.174,1.469.991.622-.533,1.21.409,1.44.84a7.338,7.338,0,0,0,.25.82,5.269,5.269,0,0,0,.579.7c.918,1.029,3.265,1.8,4.2,2.795.582.617.18,1.842-.525,1.8-.015,0-.007.023-.01.037a74.158,74.158,0,0,0,7.491-1.228,50.709,50.709,0,0,0,13.4-4.9c9.178-5.117,15.518-13.849,15.518-27.922v-9.122C337.23,441.523,323.881,432.345,308.307,428.952Z" fill="#cba46d"/>
    </g>
    <path id="Path_4" data-name="Path 4" d="M435.014,461.769v9.122c0,14.073-6.34,22.805-15.518,27.922a50.709,50.709,0,0,1-13.4,4.9,94.118,94.118,0,0,1-36.989,0c-15.574-3.393-28.923-12.515-28.923-32.817v-9.122c0-14.072,6.341-22.805,15.519-27.867a48.278,48.278,0,0,1,13.4-4.95,94.118,94.118,0,0,1,36.989,0C421.665,432.345,435.014,441.523,435.014,461.769Zm-29.2,1.836c0-6.063-2.281-9.679-5.673-11.848-3.505-2.058-7.955-2.725-12.571-2.725-9.011,0-18.244,2.5-18.244,14.573v5.451c0,6.062,2.225,9.789,5.729,11.847s8.009,2.781,12.515,2.781c9.122,0,18.244-2.5,18.244-14.628Z" fill="#cba46d"/>
    <g id="Group_3" data-name="Group 3">
      <path id="Path_5" data-name="Path 5" d="M222.975,498.153c.492-.4.711-2.524,1.332-2.825.594-.289,0,0,.533-.258s1.419.792,2.109.7c1.018-.14,1.3-.236,1.765-1.211.614-1.3,3.909-8.857,4.473-8.909.022.055.582-1.789,1.468-3.743H215.579v-52.9h-29.2l-22.75,7.286v23.7l22.75-7.286v29.2H159.957v21.86h56.786C216.475,501.459,222.383,498.639,222.975,498.153Z" fill="#cba46d"/>
      <path id="Path_6" data-name="Path 6" d="M238.5,488.816c-1.432,1.457-3.831,4.107-4.369,4.661-.627.645-.824,1.609-1.342,2.146.364.331-1,2.34-1.344,2.886.374-.592.749,1.127.756,1.181.149,1.044.187,2.075.416,3.115a1.654,1.654,0,0,1-.016.959h7.559V486.576A9.187,9.187,0,0,0,238.5,488.816Z" fill="#cba46d"/>
    </g>
    <text id="GODINA_KOŠARKE" data-name="GODINA KOŠARKE" transform="translate(297.486 548.117)" fill="#fff" font-size="28px" font-family="Helvetica-Regular, Helvetica" ><tspan x="-130" y="0">GODINA KOŠARKE</tspan></text>
  </g>
</svg>
